{
  "source": "C:\\Users\\Peter\\Desktop\\stuff\\MIUN\\quantitative_research\\video_compression\\videos\\BVI-HD\\BVI-HD_CDVL_videos\\ORIG\\PaintingTilting_1920x1080_60fps.mp4",
  "output": "C:\\Users\\Peter\\Desktop\\stuff\\MIUN\\quantitative_research\\video_compression\\compressed_videos\\BVI-HD\\hevc\\3\\PaintingTilting_1920x1080_60fps_hevc.mp4",
  "codec": "hevc",
  "ok": "Input #0, mov,mp4,m4a,3gp,3g2,mj2, from 'C:\\Users\\Peter\\Desktop\\stuff\\MIUN\\quantitative_research\\video_compression\\videos\\BVI-HD\\BVI-HD_CDVL_videos\\ORIG\\PaintingTilting_1920x1080_60fps.mp4':\n  Metadata:\n    major_brand     : isom\n    minor_version   : 512\n    compatible_brands: isomiso2avc1mp41\n    encoder         : Lavf54.28.101\n  Duration: 00:00:05.00, start: 0.000000, bitrate: 667707 kb/s\n  Stream #0:0[0x1](und): Video: h264 (High 4:4:4 Predictive) (avc1 / 0x31637661), yuv420p(progressive), 1920x1080, 667702 kb/s, 60 fps, 60 tbr, 60 tbn (default)\n    Metadata:\n      handler_name    : VideoHandler\n      vendor_id       : [0][0][0][0]\n[out#0/mp4 @ 000001be306bac00] Codec AVOption b:a (set bitrate (in bits/s)) has not been used for any stream. The most likely reason is either wrong type (e.g. a video option with no video streams) or that it is a private option of some decoder which was not actually used for any stream.\nStream mapping:\n  Stream #0:0 -> #0:0 (h264 (native) -> hevc (libx265))\nPress [q] to stop, [?] for help\n[libx265 @ 000001be306c0f00] Unknown option: \"aq-mode.\nx265 [info]: HEVC encoder version 4.1+190-8f11c33ac\nx265 [info]: build info [Windows][GCC 15.1.0][64 bit] 10bit\nx265 [info]: using cpu capabilities: MMX2 SSE2Fast LZCNT SSSE3 SSE4.2 AVX FMA3 BMI2 AVX2\nx265 [info]: Main 10 profile, Level-4.1 (Main tier)\nx265 [info]: Thread pool created using 12 threads\nx265 [info]: Slices                              : 1\nx265 [info]: frame threads / pool features       : 3 / wpp(17 rows)\nx265 [info]: Coding QT: max CU size, min CU size : 64 / 8\nx265 [info]: Residual QT: max TU size, max depth : 32 / 1 inter / 1 intra\nx265 [info]: ME / range / subpel / merge         : star / 57 / 3 / 3\nx265 [info]: Keyframe min / max / scenecut / bias  : 25 / 250 / 40 / 5.00 \nx265 [info]: Lookahead / bframes / badapt        : 25 / 4 / 2\nx265 [info]: b-pyramid / weightp / weightb       : 1 / 1 / 0\nx265 [info]: References / ref-limit  cu / depth  : 4 / on / on\nx265 [info]: AQ: mode / str / qg-size / cu-tree  : 2 / 1.0 / 32 / 1\nx265 [info]: Rate Control / qCompress            : ABR-3000 kbps / 0.60\nx265 [info]: VBV/HRD buffer / max-rate / init    : 3000 / 3000 / 0.750\nx265 [info]: tools: rect limit-modes rd=4 psy-rd=2.00 rdoq=2 psy-rdoq=1.00\nx265 [info]: tools: rskip mode=1 signhide tmvp strong-intra-smoothing lslices=4\nx265 [info]: tools: deblock sao dhdr10-info\nOutput #0, mp4, to 'C:\\Users\\Peter\\Desktop\\stuff\\MIUN\\quantitative_research\\video_compression\\compressed_videos\\BVI-HD\\hevc\\3\\PaintingTilting_1920x1080_60fps_hevc.mp4':\n  Metadata:\n    major_brand     : isom\n    minor_version   : 512\n    compatible_brands: isomiso2avc1mp41\n    encoder         : Lavf62.3.100\n  Stream #0:0(und): Video: hevc (hev1 / 0x31766568), yuv420p10le(tv, progressive), 1920x1080, q=2-31, 3000 kb/s, 60 fps, 15360 tbn (default)\n    Metadata:\n      encoder         : Lavc62.11.100 libx265\n      handler_name    : VideoHandler\n      vendor_id       : [0][0][0][0]\n    Side data:\n      cpb: bitrate max/min/avg: 3000000/0/3000000 buffer size: 3000000 vbv_delay: N/A\nframe=    0 fps=0.0 q=0.0 size=       0KiB time=N/A bitrate=N/A speed=N/A elapsed=0:00:01.05    \nframe=    0 fps=0.0 q=0.0 size=       0KiB time=N/A bitrate=N/A speed=N/A elapsed=0:00:01.60    \nframe=    0 fps=0.0 q=0.0 size=       0KiB time=N/A bitrate=N/A speed=N/A elapsed=0:00:02.12    \nframe=    0 fps=0.0 q=0.0 size=       0KiB time=N/A bitrate=N/A speed=N/A elapsed=0:00:02.64    \nframe=    0 fps=0.0 q=0.0 size=       0KiB time=N/A bitrate=N/A speed=N/A elapsed=0:00:03.15    \nframe=    0 fps=0.0 q=0.0 size=       0KiB time=N/A bitrate=N/A speed=N/A elapsed=0:00:03.68    \nframe=    0 fps=0.0 q=0.0 size=       0KiB time=N/A bitrate=N/A speed=N/A elapsed=0:00:04.21    \nframe=    0 fps=0.0 q=0.0 size=       0KiB time=N/A bitrate=N/A speed=N/A elapsed=0:00:04.73    \nframe=    0 fps=0.0 q=0.0 size=       0KiB time=N/A bitrate=N/A speed=N/A elapsed=0:00:05.25    \nframe=    0 fps=0.0 q=0.0 size=       0KiB time=N/A bitrate=N/A speed=N/A elapsed=0:00:05.76    \nframe=    0 fps=0.0 q=0.0 size=       0KiB time=N/A bitrate=N/A speed=N/A elapsed=0:00:06.30    \nframe=    0 fps=0.0 q=0.0 size=       0KiB time=N/A bitrate=N/A speed=N/A elapsed=0:00:06.87    \nframe=    0 fps=0.0 q=0.0 size=       0KiB time=N/A bitrate=N/A speed=N/A elapsed=0:00:07.41    \nframe=    0 fps=0.0 q=0.0 size=       0KiB time=N/A bitrate=N/A speed=N/A elapsed=0:00:07.94    \nframe=    0 fps=0.0 q=0.0 size=       0KiB time=N/A bitrate=N/A speed=N/A elapsed=0:00:08.46    \nframe=    0 fps=0.0 q=0.0 size=       0KiB time=N/A bitrate=N/A speed=N/A elapsed=0:00:08.97    \nframe=    0 fps=0.0 q=0.0 size=       0KiB time=N/A bitrate=N/A speed=N/A elapsed=0:00:09.49    \nframe=    1 fps=0.1 q=46.0 size=       0KiB time=-00:00:00.01 bitrate=N/A speed=N/A elapsed=0:00:10.01    \nframe=    1 fps=0.1 q=46.0 size=       0KiB time=-00:00:00.01 bitrate=N/A speed=N/A elapsed=0:00:10.54    \nframe=    2 fps=0.2 q=49.9 size=       0KiB time=00:00:00.00 bitrate=N/A speed=   0x elapsed=0:00:11.07    \nframe=    3 fps=0.3 q=51.0 size=       0KiB time=00:00:00.01 bitrate=  21.1kbits/s speed=0.00144x elapsed=0:00:11.61    \nframe=    3 fps=0.2 q=51.0 size=       0KiB time=00:00:00.01 bitrate=  21.1kbits/s speed=0.00137x elapsed=0:00:12.14    \nframe=    3 fps=0.2 q=51.0 size=       0KiB time=00:00:00.01 bitrate=  21.1kbits/s speed=0.00132x elapsed=0:00:12.65    \nframe=    4 fps=0.3 q=51.0 size=       0KiB time=00:00:00.03 bitrate=  10.6kbits/s speed=0.00253x elapsed=0:00:13.17    \nframe=    4 fps=0.3 q=51.0 size=       0KiB time=00:00:00.03 bitrate=  10.6kbits/s speed=0.00243x elapsed=0:00:13.72    \nframe=    5 fps=0.4 q=50.0 size=       0KiB time=00:00:00.05 bitrate=   7.0kbits/s speed=0.00351x elapsed=0:00:14.26    \nframe=    5 fps=0.3 q=50.0 size=       0KiB time=00:00:00.05 bitrate=   7.0kbits/s speed=0.00338x elapsed=0:00:14.78    \nframe=    5 fps=0.3 q=50.0 size=       0KiB time=00:00:00.05 bitrate=   7.0kbits/s speed=0.00326x elapsed=0:00:15.34    \nframe=    5 fps=0.3 q=50.0 size=       0KiB time=00:00:00.05 bitrate=   7.0kbits/s speed=0.00315x elapsed=0:00:15.87    \nframe=    5 fps=0.3 q=50.0 size=       0KiB time=00:00:00.05 bitrate=   7.0kbits/s speed=0.00305x elapsed=0:00:16.41    \nframe=    6 fps=0.4 q=50.0 size=       0KiB time=00:00:00.06 bitrate=   5.3kbits/s speed=0.00394x elapsed=0:00:16.93    \nframe=    6 fps=0.3 q=50.0 size=       0KiB time=00:00:00.06 bitrate=   5.3kbits/s speed=0.00382x elapsed=0:00:17.45    \nframe=    7 fps=0.4 q=45.9 size=       0KiB time=00:00:00.08 bitrate=   4.2kbits/s speed=0.00463x elapsed=0:00:17.99    \nframe=    7 fps=0.4 q=45.9 size=       0KiB time=00:00:00.08 bitrate=   4.2kbits/s speed=0.0045x elapsed=0:00:18.51    \nframe=    7 fps=0.4 q=45.9 size=       0KiB time=00:00:00.08 bitrate=   4.2kbits/s speed=0.00437x elapsed=0:00:19.05    \nframe=    7 fps=0.4 q=45.9 size=       0KiB time=00:00:00.08 bitrate=   4.2kbits/s speed=0.00426x elapsed=0:00:19.57    \nframe=    7 fps=0.3 q=45.9 size=       0KiB time=00:00:00.08 bitrate=   4.2kbits/s speed=0.00415x elapsed=0:00:20.08    \nframe=    7 fps=0.3 q=45.9 size=       0KiB time=00:00:00.08 bitrate=   4.2kbits/s speed=0.00404x elapsed=0:00:20.60    \nframe=    8 fps=0.4 q=45.9 size=       0KiB time=00:00:00.10 bitrate=   3.5kbits/s speed=0.00473x elapsed=0:00:21.13    \nframe=    8 fps=0.4 q=45.9 size=       0KiB time=00:00:00.10 bitrate=   3.5kbits/s speed=0.00462x elapsed=0:00:21.65    \nframe=    8 fps=0.4 q=45.9 size=       0KiB time=00:00:00.10 bitrate=   3.5kbits/s speed=0.00451x elapsed=0:00:22.18    \nframe=    9 fps=0.4 q=45.0 size=       0KiB time=00:00:00.11 bitrate=   3.0kbits/s speed=0.00513x elapsed=0:00:22.74    \nframe=   10 fps=0.4 q=41.6 size=       0KiB time=00:00:00.13 bitrate=   2.6kbits/s speed=0.00572x elapsed=0:00:23.29    \nframe=   11 fps=0.5 q=48.0 size=       0KiB time=00:00:00.15 bitrate=   2.3kbits/s speed=0.00629x elapsed=0:00:23.84    \nframe=   11 fps=0.5 q=48.0 size=       0KiB time=00:00:00.15 bitrate=   2.3kbits/s speed=0.00615x elapsed=0:00:24.37    \nframe=   11 fps=0.4 q=48.0 size=       0KiB time=00:00:00.15 bitrate=   2.3kbits/s speed=0.00602x elapsed=0:00:24.92    \nframe=   11 fps=0.4 q=48.0 size=       0KiB time=00:00:00.15 bitrate=   2.3kbits/s speed=0.00589x elapsed=0:00:25.45    \nframe=   12 fps=0.5 q=48.0 size=       0KiB time=00:00:00.16 bitrate=   2.1kbits/s speed=0.00642x elapsed=0:00:25.98    \nframe=   12 fps=0.5 q=48.0 size=       0KiB time=00:00:00.16 bitrate=   2.1kbits/s speed=0.00628x elapsed=0:00:26.51    \nframe=   12 fps=0.4 q=48.0 size=       0KiB time=00:00:00.16 bitrate=   2.1kbits/s speed=0.00616x elapsed=0:00:27.06    \nframe=   13 fps=0.5 q=46.0 size=       0KiB time=00:00:00.18 bitrate=   1.9kbits/s speed=0.00664x elapsed=0:00:27.59    \nframe=   14 fps=0.5 q=39.4 size=       0KiB time=00:00:00.20 bitrate=   1.8kbits/s speed=0.00711x elapsed=0:00:28.12    \nframe=   15 fps=0.5 q=45.0 size=       0KiB time=00:00:00.21 bitrate=   1.6kbits/s speed=0.00756x elapsed=0:00:28.64    \nframe=   15 fps=0.5 q=45.0 size=       0KiB time=00:00:00.21 bitrate=   1.6kbits/s speed=0.00743x elapsed=0:00:29.16    \nframe=   15 fps=0.5 q=45.0 size=       0KiB time=00:00:00.21 bitrate=   1.6kbits/s speed=0.0073x elapsed=0:00:29.68    \nframe=   16 fps=0.5 q=45.0 size=       0KiB time=00:00:00.23 bitrate=   1.5kbits/s speed=0.00772x elapsed=0:00:30.23    \nframe=   17 fps=0.6 q=46.0 size=       0KiB time=00:00:00.25 bitrate=   1.4kbits/s speed=0.00812x elapsed=0:00:30.78    \nframe=   18 fps=0.6 q=38.4 size=       0KiB time=00:00:00.26 bitrate=   1.3kbits/s speed=0.00852x elapsed=0:00:31.31    \nframe=   18 fps=0.6 q=38.4 size=       0KiB time=00:00:00.26 bitrate=   1.3kbits/s speed=0.00837x elapsed=0:00:31.85    \nframe=   19 fps=0.6 q=42.1 size=       0KiB time=00:00:00.28 bitrate=   1.2kbits/s speed=0.00874x elapsed=0:00:32.41    \nframe=   20 fps=0.6 q=45.0 size=       0KiB time=00:00:00.30 bitrate=   1.2kbits/s speed=0.00911x elapsed=0:00:32.94    \nframe=   20 fps=0.6 q=45.0 size=       0KiB time=00:00:00.30 bitrate=   1.2kbits/s speed=0.00896x elapsed=0:00:33.46    \nframe=   22 fps=0.6 q=44.0 size=       0KiB time=00:00:00.33 bitrate=   1.1kbits/s speed=0.0098x elapsed=0:00:34.00    \nframe=   22 fps=0.6 q=44.0 size=       0KiB time=00:00:00.33 bitrate=   1.1kbits/s speed=0.00965x elapsed=0:00:34.53    \nframe=   23 fps=0.7 q=37.8 size=       0KiB time=00:00:00.35 bitrate=   1.0kbits/s speed=0.00998x elapsed=0:00:35.07    \nframe=   24 fps=0.7 q=44.0 size=       0KiB time=00:00:00.36 bitrate=   1.0kbits/s speed=0.0103x elapsed=0:00:35.59    \nframe=   24 fps=0.7 q=44.0 size=       0KiB time=00:00:00.36 bitrate=   1.0kbits/s speed=0.0101x elapsed=0:00:36.13    \nframe=   25 fps=0.7 q=45.0 size=       0KiB time=00:00:00.38 bitrate=   0.9kbits/s speed=0.0105x elapsed=0:00:36.67    \nframe=   25 fps=0.7 q=45.0 size=       0KiB time=00:00:00.38 bitrate=   0.9kbits/s speed=0.0103x elapsed=0:00:37.21    \nframe=   25 fps=0.7 q=45.0 size=       0KiB time=00:00:00.38 bitrate=   0.9kbits/s speed=0.0102x elapsed=0:00:37.73    \nframe=   26 fps=0.7 q=42.0 size=       0KiB time=00:00:00.40 bitrate=   0.9kbits/s speed=0.0105x elapsed=0:00:38.26    \nframe=   27 fps=0.7 q=35.9 size=       0KiB time=00:00:00.41 bitrate=   0.8kbits/s speed=0.0107x elapsed=0:00:38.82    \nframe=   28 fps=0.7 q=40.2 size=       0KiB time=00:00:00.43 bitrate=   0.8kbits/s speed=0.011x elapsed=0:00:39.34    \nframe=   29 fps=0.7 q=41.0 size=       0KiB time=00:00:00.45 bitrate=   0.8kbits/s speed=0.0113x elapsed=0:00:39.88    \nframe=   29 fps=0.7 q=41.0 size=       0KiB time=00:00:00.45 bitrate=   0.8kbits/s speed=0.0111x elapsed=0:00:40.42    \nframe=   29 fps=0.7 q=41.0 size=       0KiB time=00:00:00.45 bitrate=   0.8kbits/s speed=0.011x elapsed=0:00:40.97    \nframe=   29 fps=0.7 q=41.0 size=       0KiB time=00:00:00.45 bitrate=   0.8kbits/s speed=0.0108x elapsed=0:00:41.50    \nframe=   29 fps=0.7 q=41.0 size=       0KiB time=00:00:00.45 bitrate=   0.8kbits/s speed=0.0107x elapsed=0:00:42.02    \nframe=   29 fps=0.7 q=41.0 size=       0KiB time=00:00:00.45 bitrate=   0.8kbits/s speed=0.0106x elapsed=0:00:42.58    \nframe=   29 fps=0.7 q=41.0 size=       0KiB time=00:00:00.45 bitrate=   0.8kbits/s speed=0.0104x elapsed=0:00:43.15    \nframe=   29 fps=0.7 q=41.0 size=       0KiB time=00:00:00.45 bitrate=   0.8kbits/s speed=0.0103x elapsed=0:00:43.68    \nframe=   29 fps=0.7 q=41.0 size=       0KiB time=00:00:00.45 bitrate=   0.8kbits/s speed=0.0102x elapsed=0:00:44.29    \nframe=   29 fps=0.6 q=41.0 size=       0KiB time=00:00:00.45 bitrate=   0.8kbits/s speed=0.01x elapsed=0:00:44.99    \nframe=   30 fps=0.7 q=41.9 size=       0KiB time=00:00:00.45 bitrate=   0.8kbits/s speed=0.00986x elapsed=0:00:45.65    \nframe=   30 fps=0.6 q=41.9 size=       0KiB time=00:00:00.46 bitrate=   0.8kbits/s speed=0.0101x elapsed=0:00:46.28    \nframe=   30 fps=0.6 q=41.9 size=       0KiB time=00:00:00.46 bitrate=   0.8kbits/s speed=0.00997x elapsed=0:00:46.82    \nframe=   31 fps=0.7 q=41.0 size=       0KiB time=00:00:00.48 bitrate=   0.7kbits/s speed=0.0102x elapsed=0:00:47.37    \nframe=   31 fps=0.6 q=41.0 size=       0KiB time=00:00:00.48 bitrate=   0.7kbits/s speed=0.0101x elapsed=0:00:47.89    \nframe=   32 fps=0.7 q=36.6 size=       0KiB time=00:00:00.50 bitrate=   0.7kbits/s speed=0.0103x elapsed=0:00:48.40    \nframe=   32 fps=0.7 q=36.6 size=       0KiB time=00:00:00.50 bitrate=   0.7kbits/s speed=0.0102x elapsed=0:00:48.92    \nframe=   33 fps=0.7 q=41.9 size=       0KiB time=00:00:00.51 bitrate=   0.7kbits/s speed=0.0104x elapsed=0:00:49.47    \nframe=   33 fps=0.7 q=41.9 size=       0KiB time=00:00:00.51 bitrate=   0.7kbits/s speed=0.0103x elapsed=0:00:50.03    \nframe=   34 fps=0.7 q=43.0 size=       0KiB time=00:00:00.53 bitrate=   0.7kbits/s speed=0.0105x elapsed=0:00:50.65    \nframe=   34 fps=0.7 q=43.0 size=       0KiB time=00:00:00.53 bitrate=   0.7kbits/s speed=0.0104x elapsed=0:00:51.23    \nframe=   34 fps=0.7 q=43.0 size=       0KiB time=00:00:00.53 bitrate=   0.7kbits/s speed=0.0103x elapsed=0:00:51.78    \nframe=   34 fps=0.6 q=43.0 size=       0KiB time=00:00:00.53 bitrate=   0.7kbits/s speed=0.0102x elapsed=0:00:52.39    \nframe=   34 fps=0.6 q=43.0 size=       0KiB time=00:00:00.53 bitrate=   0.7kbits/s speed=0.0101x elapsed=0:00:52.96    \nframe=   34 fps=0.6 q=43.0 size=       0KiB time=00:00:00.53 bitrate=   0.7kbits/s speed=0.00997x elapsed=0:00:53.49    \nframe=   35 fps=0.6 q=40.0 size=       0KiB time=00:00:00.55 bitrate=   0.6kbits/s speed=0.0102x elapsed=0:00:54.03    \nframe=   35 fps=0.6 q=40.0 size=       0KiB time=00:00:00.55 bitrate=   0.6kbits/s speed=0.0101x elapsed=0:00:54.62    \nframe=   35 fps=0.6 q=40.0 size=       0KiB time=00:00:00.55 bitrate=   0.6kbits/s speed=0.00996x elapsed=0:00:55.20    \nframe=   35 fps=0.6 q=40.0 size=       0KiB time=00:00:00.55 bitrate=   0.6kbits/s speed=0.00987x elapsed=0:00:55.74    \nframe=   36 fps=0.6 q=40.0 size=       0KiB time=00:00:00.56 bitrate=   0.6kbits/s speed=0.0101x elapsed=0:00:56.34    \nframe=   36 fps=0.6 q=40.0 size=       0KiB time=00:00:00.56 bitrate=   0.6kbits/s speed=0.00996x elapsed=0:00:56.91    \nframe=   36 fps=0.6 q=40.0 size=       0KiB time=00:00:00.56 bitrate=   0.6kbits/s speed=0.00986x elapsed=0:00:57.47    \nframe=   36 fps=0.6 q=40.0 size=       0KiB time=00:00:00.56 bitrate=   0.6kbits/s speed=0.00977x elapsed=0:00:58.02    \nframe=   37 fps=0.6 q=35.4 size=       0KiB time=00:00:00.58 bitrate=   0.6kbits/s speed=0.00995x elapsed=0:00:58.61    \nframe=   37 fps=0.6 q=35.4 size=       0KiB time=00:00:00.58 bitrate=   0.6kbits/s speed=0.00986x elapsed=0:00:59.14    \nframe=   37 fps=0.6 q=35.4 size=       0KiB time=00:00:00.58 bitrate=   0.6kbits/s speed=0.00976x elapsed=0:00:59.74    \nframe=   37 fps=0.6 q=35.4 size=       0KiB time=00:00:00.58 bitrate=   0.6kbits/s speed=0.00967x elapsed=0:01:00.30    \nframe=   37 fps=0.6 q=35.4 size=       0KiB time=00:00:00.58 bitrate=   0.6kbits/s speed=0.00959x elapsed=0:01:00.83    \nframe=   37 fps=0.6 q=35.4 size=       0KiB time=00:00:00.58 bitrate=   0.6kbits/s speed=0.0095x elapsed=0:01:01.39    \nframe=   38 fps=0.6 q=39.2 size=       0KiB time=00:00:00.60 bitrate=   0.6kbits/s speed=0.00969x elapsed=0:01:01.94    \nframe=   38 fps=0.6 q=39.2 size=       0KiB time=00:00:00.60 bitrate=   0.6kbits/s speed=0.00959x elapsed=0:01:02.53    \nframe=   38 fps=0.6 q=39.2 size=       0KiB time=00:00:00.60 bitrate=   0.6kbits/s speed=0.00951x elapsed=0:01:03.11    \nframe=   39 fps=0.6 q=40.0 size=       0KiB time=00:00:00.61 bitrate=   0.6kbits/s speed=0.00968x elapsed=0:01:03.68    \nframe=   39 fps=0.6 q=40.0 size=       0KiB time=00:00:00.61 bitrate=   0.6kbits/s speed=0.0096x elapsed=0:01:04.21    \nframe=   39 fps=0.6 q=40.0 size=       0KiB time=00:00:00.61 bitrate=   0.6kbits/s speed=0.00952x elapsed=0:01:04.74    \nframe=   40 fps=0.6 q=34.6 size=       0KiB time=00:00:00.63 bitrate=   0.6kbits/s speed=0.0097x elapsed=0:01:05.30    \nframe=   40 fps=0.6 q=34.6 size=       0KiB time=00:00:00.63 bitrate=   0.6kbits/s speed=0.00962x elapsed=0:01:05.85    \nframe=   40 fps=0.6 q=34.6 size=       0KiB time=00:00:00.63 bitrate=   0.6kbits/s speed=0.00954x elapsed=0:01:06.37    \nframe=   41 fps=0.6 q=39.8 size=       0KiB time=00:00:00.65 bitrate=   0.5kbits/s speed=0.00971x elapsed=0:01:06.90    \nframe=   41 fps=0.6 q=39.8 size=       0KiB time=00:00:00.65 bitrate=   0.5kbits/s speed=0.00964x elapsed=0:01:07.45    \nframe=   41 fps=0.6 q=39.8 size=       0KiB time=00:00:00.65 bitrate=   0.5kbits/s speed=0.00956x elapsed=0:01:07.98    \nframe=   42 fps=0.6 q=40.1 size=       0KiB time=00:00:00.66 bitrate=   0.5kbits/s speed=0.00973x elapsed=0:01:08.53    \nframe=   42 fps=0.6 q=40.1 size=       0KiB time=00:00:00.66 bitrate=   0.5kbits/s speed=0.00965x elapsed=0:01:09.06    \nframe=   42 fps=0.6 q=40.1 size=       0KiB time=00:00:00.66 bitrate=   0.5kbits/s speed=0.00958x elapsed=0:01:09.58    \nframe=   42 fps=0.6 q=40.1 size=       0KiB time=00:00:00.66 bitrate=   0.5kbits/s speed=0.00951x elapsed=0:01:10.13    \nframe=   42 fps=0.6 q=40.1 size=       0KiB time=00:00:00.66 bitrate=   0.5kbits/s speed=0.00943x elapsed=0:01:10.69    \nframe=   42 fps=0.6 q=40.1 size=       0KiB time=00:00:00.66 bitrate=   0.5kbits/s speed=0.00935x elapsed=0:01:11.31    \nframe=   43 fps=0.6 q=39.0 size=       0KiB time=00:00:00.68 bitrate=   0.5kbits/s speed=0.00951x elapsed=0:01:11.84    \nframe=   44 fps=0.6 q=39.0 size=       0KiB time=00:00:00.70 bitrate=   0.5kbits/s speed=0.00967x elapsed=0:01:12.41    \nframe=   44 fps=0.6 q=39.0 size=       0KiB time=00:00:00.70 bitrate=   0.5kbits/s speed=0.00958x elapsed=0:01:13.05    \nframe=   45 fps=0.6 q=34.7 size=       0KiB time=00:00:00.70 bitrate=   0.5kbits/s speed=0.0095x elapsed=0:01:13.64    \nframe=   45 fps=0.6 q=34.7 size=       0KiB time=00:00:00.71 bitrate=   0.5kbits/s speed=0.00965x elapsed=0:01:14.28    \nframe=   45 fps=0.6 q=34.7 size=       0KiB time=00:00:00.71 bitrate=   0.5kbits/s speed=0.00958x elapsed=0:01:14.80    \nframe=   45 fps=0.6 q=34.7 size=       0KiB time=00:00:00.71 bitrate=   0.5kbits/s speed=0.00951x elapsed=0:01:15.37    \nframe=   45 fps=0.6 q=34.7 size=       0KiB time=00:00:00.71 bitrate=   0.5kbits/s speed=0.00944x elapsed=0:01:15.95    \nframe=   45 fps=0.6 q=34.7 size=       0KiB time=00:00:00.71 bitrate=   0.5kbits/s speed=0.00936x elapsed=0:01:16.55    \nframe=   45 fps=0.6 q=34.7 size=       0KiB time=00:00:00.71 bitrate=   0.5kbits/s speed=0.00929x elapsed=0:01:17.11    \nframe=   45 fps=0.6 q=34.7 size=       0KiB time=00:00:00.71 bitrate=   0.5kbits/s speed=0.00923x elapsed=0:01:17.63    \nframe=   46 fps=0.6 q=38.8 size=       0KiB time=00:00:00.73 bitrate=   0.5kbits/s speed=0.00938x elapsed=0:01:18.15    \nframe=   47 fps=0.6 q=39.0 size=       0KiB time=00:00:00.75 bitrate=   0.5kbits/s speed=0.00953x elapsed=0:01:18.67    \nframe=   47 fps=0.6 q=39.0 size=       0KiB time=00:00:00.75 bitrate=   0.5kbits/s speed=0.00947x elapsed=0:01:19.21    \nframe=   47 fps=0.6 q=39.0 size=       0KiB time=00:00:00.75 bitrate=   0.5kbits/s speed=0.0094x elapsed=0:01:19.74    \nframe=   47 fps=0.6 q=39.0 size=       0KiB time=00:00:00.75 bitrate=   0.5kbits/s speed=0.00934x elapsed=0:01:20.26    \nframe=   48 fps=0.6 q=38.1 size=       0KiB time=00:00:00.76 bitrate=   0.5kbits/s speed=0.00949x elapsed=0:01:20.82    \nframe=   49 fps=0.6 q=38.0 size=       0KiB time=00:00:00.78 bitrate=   0.4kbits/s speed=0.00963x elapsed=0:01:21.36    \nframe=   49 fps=0.6 q=38.0 size=       0KiB time=00:00:00.78 bitrate=   0.4kbits/s speed=0.00956x elapsed=0:01:21.90    \nframe=   49 fps=0.6 q=38.0 size=       0KiB time=00:00:00.78 bitrate=   0.4kbits/s speed=0.0095x elapsed=0:01:22.45    \nframe=   50 fps=0.6 q=33.2 size=       0KiB time=00:00:00.80 bitrate=   0.4kbits/s speed=0.00964x elapsed=0:01:22.97    \nframe=   50 fps=0.6 q=33.2 size=       0KiB time=00:00:00.80 bitrate=   0.4kbits/s speed=0.00958x elapsed=0:01:23.50    \nframe=   51 fps=0.6 q=38.9 size=       0KiB time=00:00:00.81 bitrate=   0.4kbits/s speed=0.00972x elapsed=0:01:24.01    \nframe=   51 fps=0.6 q=38.9 size=       0KiB time=00:00:00.81 bitrate=   0.4kbits/s speed=0.00966x elapsed=0:01:24.53    \nframe=   51 fps=0.6 q=38.9 size=       0KiB time=00:00:00.81 bitrate=   0.4kbits/s speed=0.0096x elapsed=0:01:25.06    \nframe=   51 fps=0.6 q=38.9 size=       0KiB time=00:00:00.81 bitrate=   0.4kbits/s speed=0.00954x elapsed=0:01:25.61    \nframe=   51 fps=0.6 q=38.9 size=       0KiB time=00:00:00.81 bitrate=   0.4kbits/s speed=0.00948x elapsed=0:01:26.13    \nframe=   52 fps=0.6 q=38.0 size=       0KiB time=00:00:00.83 bitrate=   0.4kbits/s speed=0.00961x elapsed=0:01:26.68    \nframe=   53 fps=0.6 q=37.1 size=       0KiB time=00:00:00.85 bitrate=   0.4kbits/s speed=0.00974x elapsed=0:01:27.22    \nframe=   53 fps=0.6 q=37.1 size=       0KiB time=00:00:00.85 bitrate=   0.4kbits/s speed=0.00969x elapsed=0:01:27.74    \nframe=   54 fps=0.6 q=32.8 size=       0KiB time=00:00:00.86 bitrate=   0.4kbits/s speed=0.00982x elapsed=0:01:28.28    \nframe=   55 fps=0.6 q=36.5 size=     256KiB time=00:00:00.88 bitrate=2374.5kbits/s speed=0.00995x elapsed=0:01:28.79    \nframe=   55 fps=0.6 q=36.5 size=     256KiB time=00:00:00.88 bitrate=2374.5kbits/s speed=0.00989x elapsed=0:01:29.31    \nframe=   55 fps=0.6 q=36.5 size=     256KiB time=00:00:00.88 bitrate=2374.5kbits/s speed=0.00983x elapsed=0:01:29.83    \nframe=   55 fps=0.6 q=36.5 size=     256KiB time=00:00:00.88 bitrate=2374.5kbits/s speed=0.00978x elapsed=0:01:30.35    \nframe=   56 fps=0.6 q=37.1 size=     256KiB time=00:00:00.90 bitrate=2330.6kbits/s speed=0.0099x elapsed=0:01:30.86    \nframe=   56 fps=0.6 q=37.1 size=     256KiB time=00:00:00.90 bitrate=2330.6kbits/s speed=0.00985x elapsed=0:01:31.41    \nframe=   56 fps=0.6 q=37.1 size=     256KiB time=00:00:00.90 bitrate=2330.6kbits/s speed=0.00979x elapsed=0:01:31.94    \nframe=   56 fps=0.6 q=37.1 size=     256KiB time=00:00:00.90 bitrate=2330.6kbits/s speed=0.00973x elapsed=0:01:32.50    \nframe=   56 fps=0.6 q=37.1 size=     256KiB time=00:00:00.90 bitrate=2330.6kbits/s speed=0.00967x elapsed=0:01:33.02    \nframe=   57 fps=0.6 q=36.1 size=     256KiB time=00:00:00.91 bitrate=2288.2kbits/s speed=0.0098x elapsed=0:01:33.57    \nframe=   57 fps=0.6 q=36.1 size=     256KiB time=00:00:00.91 bitrate=2288.2kbits/s speed=0.00974x elapsed=0:01:34.10    \nframe=   57 fps=0.6 q=36.1 size=     256KiB time=00:00:00.91 bitrate=2288.2kbits/s speed=0.00969x elapsed=0:01:34.63    \nframe=   58 fps=0.6 q=36.2 size=     256KiB time=00:00:00.93 bitrate=2247.3kbits/s speed=0.00981x elapsed=0:01:35.17    \nframe=   59 fps=0.6 q=32.3 size=     256KiB time=00:00:00.95 bitrate=2207.9kbits/s speed=0.00992x elapsed=0:01:35.72    \nframe=   59 fps=0.6 q=32.3 size=     256KiB time=00:00:00.95 bitrate=2207.9kbits/s speed=0.00987x elapsed=0:01:36.23    \nframe=   60 fps=0.6 q=32.5 size=     256KiB time=00:00:00.96 bitrate=2169.8kbits/s speed=0.00999x elapsed=0:01:36.76    \nframe=   60 fps=0.6 q=32.5 size=     256KiB time=00:00:00.96 bitrate=2169.8kbits/s speed=0.00994x elapsed=0:01:37.28    \nframe=   61 fps=0.6 q=37.1 size=     256KiB time=00:00:00.98 bitrate=2133.1kbits/s speed=0.0101x elapsed=0:01:37.82    \nframe=   61 fps=0.6 q=37.1 size=     256KiB time=00:00:00.98 bitrate=2133.1kbits/s speed=0.01x elapsed=0:01:38.37    \nframe=   61 fps=0.6 q=37.1 size=     256KiB time=00:00:00.98 bitrate=2133.1kbits/s speed=0.00994x elapsed=0:01:38.92    \nframe=   62 fps=0.6 q=36.0 size=     256KiB time=00:00:01.00 bitrate=2097.5kbits/s speed=0.0101x elapsed=0:01:39.47    \nframe=   63 fps=0.6 q=37.0 size=     256KiB time=00:00:01.01 bitrate=2063.1kbits/s speed=0.0102x elapsed=0:01:40.00    \nframe=   63 fps=0.6 q=37.0 size=     256KiB time=00:00:01.01 bitrate=2063.1kbits/s speed=0.0101x elapsed=0:01:40.54    \nframe=   63 fps=0.6 q=37.0 size=     256KiB time=00:00:01.01 bitrate=2063.1kbits/s speed=0.0101x elapsed=0:01:41.07    \nframe=   65 fps=0.6 q=37.3 size=     256KiB time=00:00:01.05 bitrate=1997.6kbits/s speed=0.0103x elapsed=0:01:41.60    \nframe=   65 fps=0.6 q=37.3 size=     256KiB time=00:00:01.05 bitrate=1997.6kbits/s speed=0.0103x elapsed=0:01:42.15    \nframe=   66 fps=0.6 q=38.0 size=     256KiB time=00:00:01.06 bitrate=1966.4kbits/s speed=0.0104x elapsed=0:01:42.70    \nframe=   66 fps=0.6 q=38.0 size=     256KiB time=00:00:01.06 bitrate=1966.4kbits/s speed=0.0103x elapsed=0:01:43.22    \nframe=   66 fps=0.6 q=38.0 size=     256KiB time=00:00:01.06 bitrate=1966.4kbits/s speed=0.0103x elapsed=0:01:43.76    \nframe=   67 fps=0.6 q=36.0 size=     256KiB time=00:00:01.08 bitrate=1936.2kbits/s speed=0.0104x elapsed=0:01:44.31    \nframe=   68 fps=0.6 q=36.1 size=     256KiB time=00:00:01.10 bitrate=1906.8kbits/s speed=0.0105x elapsed=0:01:44.86    \nframe=   68 fps=0.6 q=36.1 size=     256KiB time=00:00:01.10 bitrate=1906.8kbits/s speed=0.0104x elapsed=0:01:45.40    \nframe=   69 fps=0.7 q=31.7 size=     256KiB time=00:00:01.11 bitrate=1878.4kbits/s speed=0.0105x elapsed=0:01:45.92    \nframe=   70 fps=0.7 q=35.1 size=     256KiB time=00:00:01.13 bitrate=1850.7kbits/s speed=0.0106x elapsed=0:01:46.46    \nframe=   71 fps=0.7 q=36.3 size=     256KiB time=00:00:01.15 bitrate=1823.9kbits/s speed=0.0107x elapsed=0:01:46.99    \nframe=   71 fps=0.7 q=36.3 size=     256KiB time=00:00:01.15 bitrate=1823.9kbits/s speed=0.0107x elapsed=0:01:47.54    \nframe=   71 fps=0.7 q=36.3 size=     256KiB time=00:00:01.15 bitrate=1823.9kbits/s speed=0.0106x elapsed=0:01:48.07    \nframe=   71 fps=0.7 q=36.3 size=     256KiB time=00:00:01.15 bitrate=1823.9kbits/s speed=0.0106x elapsed=0:01:48.59    \nframe=   71 fps=0.7 q=36.3 size=     256KiB time=00:00:01.15 bitrate=1823.9kbits/s speed=0.0105x elapsed=0:01:49.11    \nframe=   71 fps=0.6 q=36.3 size=     256KiB time=00:00:01.15 bitrate=1823.9kbits/s speed=0.0105x elapsed=0:01:49.63    \nframe=   72 fps=0.7 q=36.1 size=     256KiB time=00:00:01.16 bitrate=1797.9kbits/s speed=0.0106x elapsed=0:01:50.18    \nframe=   73 fps=0.7 q=36.2 size=     256KiB time=00:00:01.18 bitrate=1772.5kbits/s speed=0.0107x elapsed=0:01:50.72    \nframe=   73 fps=0.7 q=36.2 size=     256KiB time=00:00:01.18 bitrate=1772.5kbits/s speed=0.0106x elapsed=0:01:51.25    \nframe=   73 fps=0.7 q=36.2 size=     256KiB time=00:00:01.18 bitrate=1772.5kbits/s speed=0.0106x elapsed=0:01:51.78    \nframe=   74 fps=0.7 q=30.8 size=     256KiB time=00:00:01.20 bitrate=1747.9kbits/s speed=0.0107x elapsed=0:01:52.31    \nframe=   75 fps=0.7 q=35.2 size=     256KiB time=00:00:01.21 bitrate=1724.0kbits/s speed=0.0108x elapsed=0:01:52.85    \nframe=   75 fps=0.7 q=35.2 size=     256KiB time=00:00:01.21 bitrate=1724.0kbits/s speed=0.0107x elapsed=0:01:53.38    \nframe=   76 fps=0.7 q=36.0 size=     256KiB time=00:00:01.23 bitrate=1700.7kbits/s speed=0.0108x elapsed=0:01:53.90    \nframe=   76 fps=0.7 q=36.0 size=     256KiB time=00:00:01.23 bitrate=1700.7kbits/s speed=0.0108x elapsed=0:01:54.41    \nframe=   76 fps=0.7 q=36.0 size=     256KiB time=00:00:01.23 bitrate=1700.7kbits/s speed=0.0107x elapsed=0:01:54.96    \nframe=   77 fps=0.7 q=35.3 size=     256KiB time=00:00:01.25 bitrate=1678.0kbits/s speed=0.0108x elapsed=0:01:55.50    \nframe=   77 fps=0.7 q=35.3 size=     256KiB time=00:00:01.25 bitrate=1678.0kbits/s speed=0.0108x elapsed=0:01:56.03    \nframe=   78 fps=0.7 q=36.1 size=     256KiB time=00:00:01.26 bitrate=1655.9kbits/s speed=0.0109x elapsed=0:01:56.56    \nframe=   79 fps=0.7 q=30.6 size=     256KiB time=00:00:01.28 bitrate=1634.4kbits/s speed=0.011x elapsed=0:01:57.07    \nframe=   79 fps=0.7 q=30.6 size=     256KiB time=00:00:01.28 bitrate=1634.4kbits/s speed=0.0109x elapsed=0:01:57.59    \nframe=   79 fps=0.7 q=30.6 size=     256KiB time=00:00:01.28 bitrate=1634.4kbits/s speed=0.0109x elapsed=0:01:58.12    \nframe=   79 fps=0.7 q=30.6 size=     256KiB time=00:00:01.28 bitrate=1634.4kbits/s speed=0.0108x elapsed=0:01:58.64    \nframe=   80 fps=0.7 q=33.8 size=     256KiB time=00:00:01.30 bitrate=1613.5kbits/s speed=0.0109x elapsed=0:01:59.17    \nframe=   82 fps=0.7 q=30.7 size=     256KiB time=00:00:01.33 bitrate=1573.1kbits/s speed=0.0111x elapsed=0:01:59.70    \nframe=   82 fps=0.7 q=30.7 size=     256KiB time=00:00:01.33 bitrate=1573.1kbits/s speed=0.0111x elapsed=0:02:00.24    \nframe=   83 fps=0.7 q=34.6 size=     256KiB time=00:00:01.35 bitrate=1553.7kbits/s speed=0.0112x elapsed=0:02:00.76    \nframe=   83 fps=0.7 q=34.6 size=     256KiB time=00:00:01.35 bitrate=1553.7kbits/s speed=0.0111x elapsed=0:02:01.30    \nframe=   83 fps=0.7 q=34.6 size=     256KiB time=00:00:01.35 bitrate=1553.7kbits/s speed=0.0111x elapsed=0:02:01.84    \nframe=   83 fps=0.7 q=34.6 size=     256KiB time=00:00:01.35 bitrate=1553.7kbits/s speed=0.011x elapsed=0:02:02.42    \nframe=   84 fps=0.7 q=36.1 size=     256KiB time=00:00:01.36 bitrate=1534.8kbits/s speed=0.0111x elapsed=0:02:02.96    \nframe=   84 fps=0.7 q=36.1 size=     256KiB time=00:00:01.36 bitrate=1534.8kbits/s speed=0.0111x elapsed=0:02:03.54    \nframe=   84 fps=0.7 q=36.1 size=     256KiB time=00:00:01.36 bitrate=1534.8kbits/s speed=0.011x elapsed=0:02:04.11    \nframe=   84 fps=0.7 q=36.1 size=     256KiB time=00:00:01.36 bitrate=1534.8kbits/s speed=0.011x elapsed=0:02:04.72    \nframe=   84 fps=0.7 q=36.1 size=     256KiB time=00:00:01.36 bitrate=1534.8kbits/s speed=0.0109x elapsed=0:02:05.36    \nframe=   85 fps=0.7 q=35.1 size=     256KiB time=00:00:01.38 bitrate=1516.3kbits/s speed=0.011x elapsed=0:02:05.98    \nframe=   86 fps=0.7 q=30.6 size=     256KiB time=00:00:01.40 bitrate=1498.2kbits/s speed=0.0111x elapsed=0:02:06.58    \nframe=   86 fps=0.7 q=30.6 size=     256KiB time=00:00:01.40 bitrate=1498.2kbits/s speed=0.011x elapsed=0:02:07.16    \nframe=   87 fps=0.7 q=34.4 size=     256KiB time=00:00:01.41 bitrate=1480.6kbits/s speed=0.0111x elapsed=0:02:07.73    \nframe=   87 fps=0.7 q=34.4 size=     256KiB time=00:00:01.41 bitrate=1480.6kbits/s speed=0.011x elapsed=0:02:08.29    \nframe=   87 fps=0.7 q=34.4 size=     256KiB time=00:00:01.41 bitrate=1480.6kbits/s speed=0.011x elapsed=0:02:08.85    \nframe=   87 fps=0.7 q=34.4 size=     256KiB time=00:00:01.41 bitrate=1480.6kbits/s speed=0.0109x elapsed=0:02:09.40    \nframe=   87 fps=0.7 q=34.4 size=     256KiB time=00:00:01.41 bitrate=1480.6kbits/s speed=0.0109x elapsed=0:02:09.93    \nframe=   87 fps=0.7 q=34.4 size=     256KiB time=00:00:01.41 bitrate=1480.6kbits/s speed=0.0109x elapsed=0:02:10.53    \nframe=   88 fps=0.7 q=35.0 size=     256KiB time=00:00:01.41 bitrate=1480.6kbits/s speed=0.0108x elapsed=0:02:11.09    \nframe=   89 fps=0.7 q=30.2 size=     256KiB time=00:00:01.45 bitrate=1446.6kbits/s speed=0.011x elapsed=0:02:11.69    \nframe=   90 fps=0.7 q=34.4 size=     256KiB time=00:00:01.46 bitrate=1430.1kbits/s speed=0.0111x elapsed=0:02:12.27    \nframe=   90 fps=0.7 q=34.4 size=     256KiB time=00:00:01.46 bitrate=1430.1kbits/s speed=0.011x elapsed=0:02:12.85    \nframe=   91 fps=0.7 q=35.1 size=     256KiB time=00:00:01.48 bitrate=1414.0kbits/s speed=0.0111x elapsed=0:02:13.46    \nframe=   91 fps=0.7 q=35.1 size=     256KiB time=00:00:01.48 bitrate=1414.0kbits/s speed=0.0111x elapsed=0:02:14.03    \nframe=   91 fps=0.7 q=35.1 size=     256KiB time=00:00:01.48 bitrate=1414.0kbits/s speed=0.011x elapsed=0:02:14.65    \nframe=   91 fps=0.7 q=35.1 size=     256KiB time=00:00:01.48 bitrate=1414.0kbits/s speed=0.011x elapsed=0:02:15.21    \nframe=   92 fps=0.7 q=34.2 size=     256KiB time=00:00:01.50 bitrate=1398.3kbits/s speed=0.0111x elapsed=0:02:15.74    \nframe=   92 fps=0.7 q=34.2 size=     256KiB time=00:00:01.50 bitrate=1398.3kbits/s speed=0.011x elapsed=0:02:16.31    \nframe=   93 fps=0.7 q=34.3 size=     256KiB time=00:00:01.51 bitrate=1383.0kbits/s speed=0.0111x elapsed=0:02:16.89    \nframe=   93 fps=0.7 q=34.3 size=     256KiB time=00:00:01.51 bitrate=1383.0kbits/s speed=0.011x elapsed=0:02:17.48    \nframe=   93 fps=0.7 q=34.3 size=     256KiB time=00:00:01.51 bitrate=1383.0kbits/s speed=0.011x elapsed=0:02:17.99    \nframe=   93 fps=0.7 q=34.3 size=     256KiB time=00:00:01.51 bitrate=1383.0kbits/s speed=0.0109x elapsed=0:02:18.58    \nframe=   94 fps=0.7 q=29.6 size=     256KiB time=00:00:01.53 bitrate=1367.9kbits/s speed=0.011x elapsed=0:02:19.10    \nframe=   94 fps=0.7 q=29.6 size=     256KiB time=00:00:01.53 bitrate=1367.9kbits/s speed=0.011x elapsed=0:02:19.64    \nframe=   95 fps=0.7 q=34.2 size=     256KiB time=00:00:01.55 bitrate=1353.2kbits/s speed=0.0111x elapsed=0:02:20.24    \nframe=   96 fps=0.7 q=34.4 size=     256KiB time=00:00:01.56 bitrate=1338.8kbits/s speed=0.0111x elapsed=0:02:20.84    \nframe=   97 fps=0.7 q=34.2 size=     256KiB time=00:00:01.58 bitrate=1324.7kbits/s speed=0.0112x elapsed=0:02:21.40    \nframe=   98 fps=0.7 q=34.4 size=     256KiB time=00:00:01.60 bitrate=1310.9kbits/s speed=0.0113x elapsed=0:02:22.07    \nframe=   99 fps=0.7 q=30.0 size=     256KiB time=00:00:01.61 bitrate=1297.4kbits/s speed=0.0113x elapsed=0:02:22.62    \nframe=  100 fps=0.7 q=33.3 size=     256KiB time=00:00:01.63 bitrate=1284.2kbits/s speed=0.0114x elapsed=0:02:23.18    \nframe=  100 fps=0.7 q=33.3 size=     256KiB time=00:00:01.63 bitrate=1284.2kbits/s speed=0.0114x elapsed=0:02:23.75    \nframe=  100 fps=0.7 q=33.3 size=     256KiB time=00:00:01.63 bitrate=1284.2kbits/s speed=0.0113x elapsed=0:02:24.36    \nframe=  100 fps=0.7 q=33.3 size=     256KiB time=00:00:01.63 bitrate=1284.2kbits/s speed=0.0113x elapsed=0:02:24.93    \nframe=  100 fps=0.7 q=33.3 size=     256KiB time=00:00:01.63 bitrate=1284.2kbits/s speed=0.0112x elapsed=0:02:25.62    \nframe=  100 fps=0.7 q=33.3 size=     256KiB time=00:00:01.63 bitrate=1284.2kbits/s speed=0.0112x elapsed=0:02:26.21    \nframe=  100 fps=0.7 q=33.3 size=     256KiB time=00:00:01.63 bitrate=1284.2kbits/s speed=0.0111x elapsed=0:02:26.80    \nframe=  100 fps=0.7 q=33.3 size=     256KiB time=00:00:01.63 bitrate=1284.2kbits/s speed=0.0111x elapsed=0:02:27.38    \nframe=  100 fps=0.7 q=33.3 size=     256KiB time=00:00:01.63 bitrate=1284.2kbits/s speed=0.011x elapsed=0:02:28.05    \nframe=  100 fps=0.7 q=33.3 size=     256KiB time=00:00:01.63 bitrate=1284.2kbits/s speed=0.011x elapsed=0:02:28.65    \nframe=  101 fps=0.7 q=34.1 size=     256KiB time=00:00:01.65 bitrate=1271.2kbits/s speed=0.0111x elapsed=0:02:29.24    \nframe=  101 fps=0.7 q=34.1 size=     256KiB time=00:00:01.65 bitrate=1271.2kbits/s speed=0.011x elapsed=0:02:29.81    \nframe=  101 fps=0.7 q=34.1 size=     256KiB time=00:00:01.65 bitrate=1271.2kbits/s speed=0.011x elapsed=0:02:30.37    \nframe=  101 fps=0.7 q=34.1 size=     256KiB time=00:00:01.65 bitrate=1271.2kbits/s speed=0.0109x elapsed=0:02:30.91    \nframe=  101 fps=0.7 q=34.1 size=     256KiB time=00:00:01.65 bitrate=1271.2kbits/s speed=0.0109x elapsed=0:02:31.50    \nframe=  102 fps=0.7 q=34.1 size=     256KiB time=00:00:01.66 bitrate=1258.5kbits/s speed=0.011x elapsed=0:02:32.09    \nframe=  102 fps=0.7 q=34.1 size=     256KiB time=00:00:01.66 bitrate=1258.5kbits/s speed=0.0109x elapsed=0:02:32.64    \nframe=  103 fps=0.7 q=29.8 size=     256KiB time=00:00:01.68 bitrate=1246.0kbits/s speed=0.011x elapsed=0:02:33.19    \nframe=  103 fps=0.7 q=29.8 size=     256KiB time=00:00:01.68 bitrate=1246.0kbits/s speed=0.0109x elapsed=0:02:33.72    \nframe=  103 fps=0.7 q=29.8 size=     256KiB time=00:00:01.68 bitrate=1246.0kbits/s speed=0.0109x elapsed=0:02:34.31    \nframe=  103 fps=0.7 q=29.8 size=     256KiB time=00:00:01.68 bitrate=1246.0kbits/s speed=0.0109x elapsed=0:02:34.84    \nframe=  103 fps=0.7 q=29.8 size=     256KiB time=00:00:01.68 bitrate=1246.0kbits/s speed=0.0108x elapsed=0:02:35.41    \nframe=  103 fps=0.7 q=29.8 size=     256KiB time=00:00:01.68 bitrate=1246.0kbits/s speed=0.0108x elapsed=0:02:35.95    \nframe=  103 fps=0.7 q=29.8 size=     256KiB time=00:00:01.68 bitrate=1246.0kbits/s speed=0.0108x elapsed=0:02:36.52    \nframe=  103 fps=0.7 q=29.8 size=     256KiB time=00:00:01.68 bitrate=1246.0kbits/s speed=0.0107x elapsed=0:02:37.05    \nframe=  103 fps=0.7 q=29.8 size=     256KiB time=00:00:01.68 bitrate=1246.0kbits/s speed=0.0107x elapsed=0:02:37.62    \nframe=  104 fps=0.7 q=32.5 size=     512KiB time=00:00:01.70 bitrate=2467.4kbits/s speed=0.0107x elapsed=0:02:38.16    \nframe=  104 fps=0.7 q=32.5 size=     512KiB time=00:00:01.70 bitrate=2467.4kbits/s speed=0.0107x elapsed=0:02:38.70    \nframe=  104 fps=0.7 q=32.5 size=     512KiB time=00:00:01.70 bitrate=2467.4kbits/s speed=0.0107x elapsed=0:02:39.26    \nframe=  105 fps=0.7 q=34.2 size=     512KiB time=00:00:01.71 bitrate=2443.5kbits/s speed=0.0107x elapsed=0:02:39.82    \nframe=  106 fps=0.7 q=29.8 size=     512KiB time=00:00:01.73 bitrate=2420.0kbits/s speed=0.0108x elapsed=0:02:40.37    \nframe=  106 fps=0.7 q=29.8 size=     512KiB time=00:00:01.73 bitrate=2420.0kbits/s speed=0.0108x elapsed=0:02:40.90    \nframe=  107 fps=0.7 q=33.6 size=     512KiB time=00:00:01.75 bitrate=2396.9kbits/s speed=0.0108x elapsed=0:02:41.43    \nframe=  107 fps=0.7 q=33.6 size=     512KiB time=00:00:01.75 bitrate=2396.9kbits/s speed=0.0108x elapsed=0:02:41.94    \nframe=  107 fps=0.7 q=33.6 size=     512KiB time=00:00:01.75 bitrate=2396.9kbits/s speed=0.0108x elapsed=0:02:42.47    \nframe=  107 fps=0.7 q=33.6 size=     512KiB time=00:00:01.75 bitrate=2396.9kbits/s speed=0.0107x elapsed=0:02:42.97    \nframe=  107 fps=0.7 q=33.6 size=     512KiB time=00:00:01.75 bitrate=2396.9kbits/s speed=0.0107x elapsed=0:02:43.53    \nframe=  107 fps=0.7 q=33.6 size=     512KiB time=00:00:01.75 bitrate=2396.9kbits/s speed=0.0107x elapsed=0:02:44.07    \nframe=  107 fps=0.7 q=33.6 size=     512KiB time=00:00:01.75 bitrate=2396.9kbits/s speed=0.0106x elapsed=0:02:44.60    \nframe=  108 fps=0.7 q=34.0 size=     512KiB time=00:00:01.76 bitrate=2374.3kbits/s speed=0.0107x elapsed=0:02:45.16    \nframe=  109 fps=0.7 q=34.1 size=     512KiB time=00:00:01.78 bitrate=2352.1kbits/s speed=0.0108x elapsed=0:02:45.75    \nframe=  109 fps=0.7 q=34.1 size=     512KiB time=00:00:01.78 bitrate=2352.1kbits/s speed=0.0107x elapsed=0:02:46.40    \nframe=  109 fps=0.7 q=34.1 size=     512KiB time=00:00:01.78 bitrate=2352.1kbits/s speed=0.0107x elapsed=0:02:47.00    \nframe=  109 fps=0.6 q=34.1 size=     512KiB time=00:00:01.78 bitrate=2352.1kbits/s speed=0.0106x elapsed=0:02:47.70    \nframe=  109 fps=0.6 q=34.1 size=     512KiB time=00:00:01.78 bitrate=2352.1kbits/s speed=0.0106x elapsed=0:02:48.30    \nframe=  109 fps=0.6 q=34.1 size=     512KiB time=00:00:01.78 bitrate=2352.1kbits/s speed=0.0106x elapsed=0:02:48.90    \nframe=  109 fps=0.6 q=34.1 size=     512KiB time=00:00:01.78 bitrate=2352.1kbits/s speed=0.0105x elapsed=0:02:49.47    \nframe=  110 fps=0.6 q=29.7 size=     512KiB time=00:00:01.80 bitrate=2330.4kbits/s speed=0.0106x elapsed=0:02:50.00    \nframe=  110 fps=0.6 q=29.7 size=     512KiB time=00:00:01.80 bitrate=2330.4kbits/s speed=0.0106x elapsed=0:02:50.55    \nframe=  110 fps=0.6 q=29.7 size=     512KiB time=00:00:01.80 bitrate=2330.4kbits/s speed=0.0105x elapsed=0:02:51.10    \nframe=  110 fps=0.6 q=29.7 size=     512KiB time=00:00:01.80 bitrate=2330.4kbits/s speed=0.0105x elapsed=0:02:51.63    \nframe=  110 fps=0.6 q=29.7 size=     512KiB time=00:00:01.80 bitrate=2330.4kbits/s speed=0.0105x elapsed=0:02:52.20    \nframe=  110 fps=0.6 q=29.7 size=     512KiB time=00:00:01.80 bitrate=2330.4kbits/s speed=0.0104x elapsed=0:02:52.79    \nframe=  111 fps=0.6 q=33.4 size=     512KiB time=00:00:01.81 bitrate=2309.0kbits/s speed=0.0105x elapsed=0:02:53.32    \nframe=  112 fps=0.6 q=33.4 size=     512KiB time=00:00:01.83 bitrate=2288.0kbits/s speed=0.0105x elapsed=0:02:53.86    \nframe=  112 fps=0.6 q=33.4 size=     512KiB time=00:00:01.83 bitrate=2288.0kbits/s speed=0.0105x elapsed=0:02:54.43    \nframe=  112 fps=0.6 q=33.4 size=     512KiB time=00:00:01.83 bitrate=2288.0kbits/s speed=0.0105x elapsed=0:02:54.98    \nframe=  112 fps=0.6 q=33.4 size=     512KiB time=00:00:01.83 bitrate=2288.0kbits/s speed=0.0104x elapsed=0:02:55.52    \nframe=  112 fps=0.6 q=33.4 size=     512KiB time=00:00:01.83 bitrate=2288.0kbits/s speed=0.0104x elapsed=0:02:56.10    \nframe=  112 fps=0.6 q=33.4 size=     512KiB time=00:00:01.83 bitrate=2288.0kbits/s speed=0.0104x elapsed=0:02:56.70    \nframe=  112 fps=0.6 q=33.4 size=     512KiB time=00:00:01.83 bitrate=2288.0kbits/s speed=0.0103x elapsed=0:02:57.28    \nframe=  113 fps=0.6 q=33.2 size=     512KiB time=00:00:01.85 bitrate=2267.4kbits/s speed=0.0104x elapsed=0:02:57.83    \nframe=  113 fps=0.6 q=33.2 size=     512KiB time=00:00:01.85 bitrate=2267.4kbits/s speed=0.0104x elapsed=0:02:58.37    \nframe=  113 fps=0.6 q=33.2 size=     512KiB time=00:00:01.85 bitrate=2267.4kbits/s speed=0.0103x elapsed=0:02:58.93    \nframe=  113 fps=0.6 q=33.2 size=     512KiB time=00:00:01.85 bitrate=2267.4kbits/s speed=0.0103x elapsed=0:02:59.50    \nframe=  113 fps=0.6 q=33.2 size=     512KiB time=00:00:01.85 bitrate=2267.4kbits/s speed=0.0103x elapsed=0:03:00.05    \nframe=  113 fps=0.6 q=33.2 size=     512KiB time=00:00:01.85 bitrate=2267.4kbits/s speed=0.0102x elapsed=0:03:00.58    \nframe=  114 fps=0.6 q=33.3 size=     512KiB time=00:00:01.86 bitrate=2247.1kbits/s speed=0.0103x elapsed=0:03:01.15    \nframe=  114 fps=0.6 q=33.3 size=     512KiB time=00:00:01.86 bitrate=2247.1kbits/s speed=0.0103x elapsed=0:03:01.69    \nframe=  115 fps=0.6 q=29.1 size=     512KiB time=00:00:01.88 bitrate=2227.3kbits/s speed=0.0103x elapsed=0:03:02.22    \nframe=  115 fps=0.6 q=29.1 size=     512KiB time=00:00:01.88 bitrate=2227.3kbits/s speed=0.0103x elapsed=0:03:02.79    \nframe=  115 fps=0.6 q=29.1 size=     512KiB time=00:00:01.88 bitrate=2227.3kbits/s speed=0.0103x elapsed=0:03:03.33    \nframe=  115 fps=0.6 q=29.1 size=     512KiB time=00:00:01.88 bitrate=2227.3kbits/s speed=0.0102x elapsed=0:03:03.88    \nframe=  116 fps=0.6 q=28.9 size=     512KiB time=00:00:01.90 bitrate=2207.7kbits/s speed=0.0103x elapsed=0:03:04.41    \nframe=  116 fps=0.6 q=28.9 size=     512KiB time=00:00:01.90 bitrate=2207.7kbits/s speed=0.0103x elapsed=0:03:04.95    \nframe=  117 fps=0.6 q=34.2 size=     512KiB time=00:00:01.91 bitrate=2188.5kbits/s speed=0.0103x elapsed=0:03:05.50    \nframe=  117 fps=0.6 q=34.2 size=     512KiB time=00:00:01.91 bitrate=2188.5kbits/s speed=0.0103x elapsed=0:03:06.03    \nframe=  117 fps=0.6 q=34.2 size=     512KiB time=00:00:01.91 bitrate=2188.5kbits/s speed=0.0103x elapsed=0:03:06.55    \nframe=  117 fps=0.6 q=34.2 size=     512KiB time=00:00:01.91 bitrate=2188.5kbits/s speed=0.0102x elapsed=0:03:07.09    \nframe=  117 fps=0.6 q=34.2 size=     512KiB time=00:00:01.91 bitrate=2188.5kbits/s speed=0.0102x elapsed=0:03:07.64    \nframe=  117 fps=0.6 q=34.2 size=     512KiB time=00:00:01.91 bitrate=2188.5kbits/s speed=0.0102x elapsed=0:03:08.23    \nframe=  117 fps=0.6 q=34.2 size=     512KiB time=00:00:01.91 bitrate=2188.5kbits/s speed=0.0102x elapsed=0:03:08.80    \nframe=  117 fps=0.6 q=34.2 size=     512KiB time=00:00:01.91 bitrate=2188.5kbits/s speed=0.0101x elapsed=0:03:09.37    \nframe=  117 fps=0.6 q=34.2 size=     512KiB time=00:00:01.91 bitrate=2188.5kbits/s speed=0.0101x elapsed=0:03:09.98    \nframe=  118 fps=0.6 q=34.1 size=     512KiB time=00:00:01.93 bitrate=2169.7kbits/s speed=0.0101x elapsed=0:03:10.51    \nframe=  120 fps=0.6 q=29.4 size=     512KiB time=00:00:01.96 bitrate=2132.9kbits/s speed=0.0103x elapsed=0:03:11.06    \nframe=  120 fps=0.6 q=29.4 size=     512KiB time=00:00:01.96 bitrate=2132.9kbits/s speed=0.0103x elapsed=0:03:11.63    \nframe=  120 fps=0.6 q=29.4 size=     512KiB time=00:00:01.96 bitrate=2132.9kbits/s speed=0.0102x elapsed=0:03:12.16    \nframe=  120 fps=0.6 q=29.4 size=     512KiB time=00:00:01.96 bitrate=2132.9kbits/s speed=0.0102x elapsed=0:03:12.70    \nframe=  121 fps=0.6 q=29.6 size=     512KiB time=00:00:01.98 bitrate=2115.0kbits/s speed=0.0103x elapsed=0:03:13.25    \nframe=  121 fps=0.6 q=29.6 size=     512KiB time=00:00:01.98 bitrate=2115.0kbits/s speed=0.0102x elapsed=0:03:13.83    \nframe=  122 fps=0.6 q=35.0 size=     512KiB time=00:00:02.00 bitrate=2097.3kbits/s speed=0.0103x elapsed=0:03:14.42    \nframe=  122 fps=0.6 q=35.0 size=     512KiB time=00:00:02.00 bitrate=2097.3kbits/s speed=0.0103x elapsed=0:03:14.94    \nframe=  122 fps=0.6 q=35.0 size=     512KiB time=00:00:02.00 bitrate=2097.3kbits/s speed=0.0102x elapsed=0:03:15.51    \nframe=  122 fps=0.6 q=35.0 size=     512KiB time=00:00:02.00 bitrate=2097.3kbits/s speed=0.0102x elapsed=0:03:16.04    \nframe=  123 fps=0.6 q=35.0 size=     512KiB time=00:00:02.01 bitrate=2080.0kbits/s speed=0.0103x elapsed=0:03:16.63    \nframe=  123 fps=0.6 q=35.0 size=     512KiB time=00:00:02.01 bitrate=2080.0kbits/s speed=0.0102x elapsed=0:03:17.17    \nframe=  123 fps=0.6 q=35.0 size=     512KiB time=00:00:02.01 bitrate=2080.0kbits/s speed=0.0102x elapsed=0:03:17.73    \nframe=  123 fps=0.6 q=35.0 size=     512KiB time=00:00:02.01 bitrate=2080.0kbits/s speed=0.0102x elapsed=0:03:18.31    \nframe=  123 fps=0.6 q=35.0 size=     512KiB time=00:00:02.01 bitrate=2080.0kbits/s speed=0.0101x elapsed=0:03:18.83    \nframe=  123 fps=0.6 q=35.0 size=     512KiB time=00:00:02.01 bitrate=2080.0kbits/s speed=0.0101x elapsed=0:03:19.35    \nframe=  123 fps=0.6 q=35.0 size=     512KiB time=00:00:02.01 bitrate=2080.0kbits/s speed=0.0101x elapsed=0:03:19.90    \nframe=  124 fps=0.6 q=34.5 size=     512KiB time=00:00:02.03 bitrate=2062.9kbits/s speed=0.0101x elapsed=0:03:20.47    \nframe=  124 fps=0.6 q=34.5 size=     512KiB time=00:00:02.03 bitrate=2062.9kbits/s speed=0.0101x elapsed=0:03:21.00    \nframe=  126 fps=0.6 q=29.5 size=     512KiB time=00:00:02.06 bitrate=2029.7kbits/s speed=0.0103x elapsed=0:03:21.55    \nframe=  126 fps=0.6 q=29.5 size=     512KiB time=00:00:02.06 bitrate=2029.7kbits/s speed=0.0102x elapsed=0:03:22.14    \nframe=  126 fps=0.6 q=29.5 size=     512KiB time=00:00:02.06 bitrate=2029.7kbits/s speed=0.0102x elapsed=0:03:22.69    \nframe=  126 fps=0.6 q=29.5 size=     512KiB time=00:00:02.06 bitrate=2029.7kbits/s speed=0.0102x elapsed=0:03:23.26    \nframe=  126 fps=0.6 q=29.5 size=     512KiB time=00:00:02.06 bitrate=2029.7kbits/s speed=0.0101x elapsed=0:03:23.78    \nframe=  126 fps=0.6 q=29.5 size=     512KiB time=00:00:02.06 bitrate=2029.7kbits/s speed=0.0101x elapsed=0:03:24.32    \nframe=  126 fps=0.6 q=29.5 size=     512KiB time=00:00:02.06 bitrate=2029.7kbits/s speed=0.0101x elapsed=0:03:24.85    \nframe=  127 fps=0.6 q=35.1 size=     512KiB time=00:00:02.08 bitrate=2013.4kbits/s speed=0.0101x elapsed=0:03:25.41    \nframe=  129 fps=0.6 q=34.3 size=     512KiB time=00:00:02.11 bitrate=1981.7kbits/s speed=0.0103x elapsed=0:03:25.96    \nframe=  129 fps=0.6 q=34.3 size=     512KiB time=00:00:02.11 bitrate=1981.7kbits/s speed=0.0103x elapsed=0:03:26.49    \nframe=  129 fps=0.6 q=34.3 size=     512KiB time=00:00:02.11 bitrate=1981.7kbits/s speed=0.0102x elapsed=0:03:27.06    \nframe=  129 fps=0.6 q=34.3 size=     512KiB time=00:00:02.11 bitrate=1981.7kbits/s speed=0.0102x elapsed=0:03:27.67    \nframe=  129 fps=0.6 q=34.3 size=     512KiB time=00:00:02.11 bitrate=1981.7kbits/s speed=0.0102x elapsed=0:03:28.25    \nframe=  130 fps=0.6 q=29.4 size=     512KiB time=00:00:02.13 bitrate=1966.2kbits/s speed=0.0102x elapsed=0:03:28.80    \nframe=  130 fps=0.6 q=29.4 size=     512KiB time=00:00:02.13 bitrate=1966.2kbits/s speed=0.0102x elapsed=0:03:29.48    \nframe=  130 fps=0.6 q=29.4 size=     512KiB time=00:00:02.13 bitrate=1966.2kbits/s speed=0.0102x elapsed=0:03:30.06    \nframe=  130 fps=0.6 q=29.4 size=     512KiB time=00:00:02.13 bitrate=1966.2kbits/s speed=0.0101x elapsed=0:03:30.72    \nframe=  130 fps=0.6 q=29.4 size=     512KiB time=00:00:02.13 bitrate=1966.2kbits/s speed=0.0101x elapsed=0:03:31.32    \nframe=  130 fps=0.6 q=29.4 size=     512KiB time=00:00:02.13 bitrate=1966.2kbits/s speed=0.0101x elapsed=0:03:31.89    \nframe=  131 fps=0.6 q=32.8 size=     512KiB time=00:00:02.15 bitrate=1951.0kbits/s speed=0.0101x elapsed=0:03:32.46    \nframe=  131 fps=0.6 q=32.8 size=     512KiB time=00:00:02.15 bitrate=1951.0kbits/s speed=0.0101x elapsed=0:03:33.07    \nframe=  131 fps=0.6 q=32.8 size=     512KiB time=00:00:02.15 bitrate=1951.0kbits/s speed=0.0101x elapsed=0:03:33.69    \nframe=  131 fps=0.6 q=32.8 size=     512KiB time=00:00:02.15 bitrate=1951.0kbits/s speed=0.01x elapsed=0:03:34.29    \nframe=  131 fps=0.6 q=32.8 size=     512KiB time=00:00:02.15 bitrate=1951.0kbits/s speed=0.01x elapsed=0:03:34.83    \nframe=  131 fps=0.6 q=32.8 size=     512KiB time=00:00:02.15 bitrate=1951.0kbits/s speed=0.00998x elapsed=0:03:35.39    \nframe=  131 fps=0.6 q=32.8 size=     512KiB time=00:00:02.15 bitrate=1951.0kbits/s speed=0.00996x elapsed=0:03:35.95    \nframe=  131 fps=0.6 q=32.8 size=     512KiB time=00:00:02.15 bitrate=1951.0kbits/s speed=0.00993x elapsed=0:03:36.50    \nframe=  131 fps=0.6 q=32.8 size=     512KiB time=00:00:02.15 bitrate=1951.0kbits/s speed=0.00991x elapsed=0:03:37.04    \nframe=  131 fps=0.6 q=32.8 size=     512KiB time=00:00:02.15 bitrate=1951.0kbits/s speed=0.00988x elapsed=0:03:37.56    \nframe=  132 fps=0.6 q=34.1 size=     512KiB time=00:00:02.16 bitrate=1936.0kbits/s speed=0.00993x elapsed=0:03:38.10    \nframe=  133 fps=0.6 q=33.6 size=     512KiB time=00:00:02.18 bitrate=1921.2kbits/s speed=0.00999x elapsed=0:03:38.64    \nframe=  134 fps=0.6 q=29.1 size=     512KiB time=00:00:02.20 bitrate=1906.7kbits/s speed=0.01x elapsed=0:03:39.17    \nframe=  134 fps=0.6 q=29.1 size=     512KiB time=00:00:02.20 bitrate=1906.7kbits/s speed=0.01x elapsed=0:03:39.70    \nframe=  135 fps=0.6 q=31.4 size=     512KiB time=00:00:02.21 bitrate=1892.3kbits/s speed=0.0101x elapsed=0:03:40.25    \nframe=  136 fps=0.6 q=33.4 size=     512KiB time=00:00:02.23 bitrate=1878.2kbits/s speed=0.0101x elapsed=0:03:40.76    \nframe=  136 fps=0.6 q=33.4 size=     512KiB time=00:00:02.23 bitrate=1878.2kbits/s speed=0.0101x elapsed=0:03:41.29    \nframe=  136 fps=0.6 q=33.4 size=     512KiB time=00:00:02.23 bitrate=1878.2kbits/s speed=0.0101x elapsed=0:03:41.83    \nframe=  138 fps=0.6 q=33.2 size=     512KiB time=00:00:02.26 bitrate=1850.6kbits/s speed=0.0102x elapsed=0:03:42.36    \nframe=  139 fps=0.6 q=29.2 size=     512KiB time=00:00:02.28 bitrate=1837.1kbits/s speed=0.0102x elapsed=0:03:42.90    \nframe=  140 fps=0.6 q=32.8 size=     512KiB time=00:00:02.30 bitrate=1823.8kbits/s speed=0.0103x elapsed=0:03:43.45    \nframe=  140 fps=0.6 q=32.8 size=     512KiB time=00:00:02.30 bitrate=1823.8kbits/s speed=0.0103x elapsed=0:03:43.98    \nframe=  141 fps=0.6 q=33.1 size=     512KiB time=00:00:02.31 bitrate=1810.6kbits/s speed=0.0103x elapsed=0:03:44.50    \nframe=  142 fps=0.6 q=33.4 size=     512KiB time=00:00:02.33 bitrate=1797.7kbits/s speed=0.0104x elapsed=0:03:45.04    \nframe=  142 fps=0.6 q=33.4 size=     512KiB time=00:00:02.33 bitrate=1797.7kbits/s speed=0.0103x elapsed=0:03:45.55    \nframe=  143 fps=0.6 q=33.4 size=     512KiB time=00:00:02.35 bitrate=1785.0kbits/s speed=0.0104x elapsed=0:03:46.07    \nframe=  144 fps=0.6 q=29.3 size=     512KiB time=00:00:02.36 bitrate=1772.4kbits/s speed=0.0104x elapsed=0:03:46.60    \nframe=  144 fps=0.6 q=29.3 size=     512KiB time=00:00:02.36 bitrate=1772.4kbits/s speed=0.0104x elapsed=0:03:47.13    \nframe=  145 fps=0.6 q=28.6 size=     512KiB time=00:00:02.38 bitrate=1760.0kbits/s speed=0.0105x elapsed=0:03:47.66    \nframe=  145 fps=0.6 q=28.6 size=     512KiB time=00:00:02.38 bitrate=1760.0kbits/s speed=0.0104x elapsed=0:03:48.22    \nframe=  146 fps=0.6 q=34.3 size=     512KiB time=00:00:02.40 bitrate=1747.8kbits/s speed=0.0105x elapsed=0:03:48.74    \nframe=  146 fps=0.6 q=34.3 size=     512KiB time=00:00:02.40 bitrate=1747.8kbits/s speed=0.0105x elapsed=0:03:49.28    \nframe=  146 fps=0.6 q=34.3 size=     512KiB time=00:00:02.40 bitrate=1747.8kbits/s speed=0.0104x elapsed=0:03:49.80    \nframe=  147 fps=0.6 q=33.3 size=     512KiB time=00:00:02.41 bitrate=1735.7kbits/s speed=0.0105x elapsed=0:03:50.35    \nframe=  147 fps=0.6 q=33.3 size=     512KiB time=00:00:02.41 bitrate=1735.7kbits/s speed=0.0105x elapsed=0:03:50.88    \nframe=  148 fps=0.6 q=33.5 size=     512KiB time=00:00:02.43 bitrate=1723.8kbits/s speed=0.0105x elapsed=0:03:51.41    \nframe=  148 fps=0.6 q=33.5 size=     512KiB time=00:00:02.43 bitrate=1723.8kbits/s speed=0.0105x elapsed=0:03:51.93    \nframe=  149 fps=0.6 q=28.7 size=     512KiB time=00:00:02.45 bitrate=1712.1kbits/s speed=0.0105x elapsed=0:03:52.47    \nframe=  149 fps=0.6 q=28.7 size=     512KiB time=00:00:02.45 bitrate=1712.1kbits/s speed=0.0105x elapsed=0:03:53.01    \nframe=  150 fps=0.6 q=29.1 size=     768KiB time=00:00:02.46 bitrate=2550.7kbits/s speed=0.0106x elapsed=0:03:53.54    \nframe=  151 fps=0.6 q=33.5 size=     768KiB time=00:00:02.48 bitrate=2533.6kbits/s speed=0.0106x elapsed=0:03:54.08    \nframe=  151 fps=0.6 q=33.5 size=     768KiB time=00:00:02.48 bitrate=2533.6kbits/s speed=0.0106x elapsed=0:03:54.62    \nframe=  151 fps=0.6 q=33.5 size=     768KiB time=00:00:02.48 bitrate=2533.6kbits/s speed=0.0106x elapsed=0:03:55.16    \nframe=  151 fps=0.6 q=33.5 size=     768KiB time=00:00:02.48 bitrate=2533.6kbits/s speed=0.0105x elapsed=0:03:55.69    \nframe=  151 fps=0.6 q=33.5 size=     768KiB time=00:00:02.48 bitrate=2533.6kbits/s speed=0.0105x elapsed=0:03:56.23    \nframe=  152 fps=0.6 q=33.5 size=     768KiB time=00:00:02.50 bitrate=2516.7kbits/s speed=0.0106x elapsed=0:03:56.77    \nframe=  153 fps=0.6 q=33.3 size=     768KiB time=00:00:02.51 bitrate=2500.1kbits/s speed=0.0106x elapsed=0:03:57.30    \nframe=  153 fps=0.6 q=33.3 size=     768KiB time=00:00:02.51 bitrate=2500.1kbits/s speed=0.0106x elapsed=0:03:57.85    \nframe=  154 fps=0.6 q=28.6 size=     768KiB time=00:00:02.53 bitrate=2483.6kbits/s speed=0.0106x elapsed=0:03:58.37    \nframe=  155 fps=0.6 q=32.3 size=     768KiB time=00:00:02.55 bitrate=2467.4kbits/s speed=0.0107x elapsed=0:03:58.93    \nframe=  155 fps=0.6 q=32.3 size=     768KiB time=00:00:02.55 bitrate=2467.4kbits/s speed=0.0106x elapsed=0:03:59.44    \nframe=  156 fps=0.7 q=34.0 size=     768KiB time=00:00:02.56 bitrate=2451.4kbits/s speed=0.0107x elapsed=0:03:59.97    \nframe=  157 fps=0.7 q=33.5 size=     768KiB time=00:00:02.58 bitrate=2435.5kbits/s speed=0.0107x elapsed=0:04:00.50    \nframe=  158 fps=0.7 q=28.8 size=     768KiB time=00:00:02.60 bitrate=2419.9kbits/s speed=0.0108x elapsed=0:04:01.03    \nframe=  159 fps=0.7 q=31.7 size=     768KiB time=00:00:02.61 bitrate=2404.5kbits/s speed=0.0108x elapsed=0:04:01.56    \nframe=  159 fps=0.7 q=31.7 size=     768KiB time=00:00:02.61 bitrate=2404.5kbits/s speed=0.0108x elapsed=0:04:02.09    \nframe=  159 fps=0.7 q=31.7 size=     768KiB time=00:00:02.61 bitrate=2404.5kbits/s speed=0.0108x elapsed=0:04:02.65    \nframe=  160 fps=0.7 q=33.1 size=     768KiB time=00:00:02.63 bitrate=2389.3kbits/s speed=0.0108x elapsed=0:04:03.20    \nframe=  162 fps=0.7 q=29.0 size=     768KiB time=00:00:02.66 bitrate=2359.4kbits/s speed=0.0109x elapsed=0:04:03.74    \nframe=  162 fps=0.7 q=29.0 size=     768KiB time=00:00:02.66 bitrate=2359.4kbits/s speed=0.0109x elapsed=0:04:04.26    \nframe=  163 fps=0.7 q=32.1 size=     768KiB time=00:00:02.68 bitrate=2344.8kbits/s speed=0.011x elapsed=0:04:04.86    \nframe=  163 fps=0.7 q=32.1 size=     768KiB time=00:00:02.68 bitrate=2344.8kbits/s speed=0.0109x elapsed=0:04:05.48    \nframe=  163 fps=0.7 q=32.1 size=     768KiB time=00:00:02.68 bitrate=2344.8kbits/s speed=0.0109x elapsed=0:04:06.15    \nframe=  164 fps=0.7 q=33.4 size=     768KiB time=00:00:02.70 bitrate=2330.3kbits/s speed=0.0109x elapsed=0:04:06.74    \nframe=  164 fps=0.7 q=33.4 size=     768KiB time=00:00:02.70 bitrate=2330.3kbits/s speed=0.0109x elapsed=0:04:07.26    \nframe=  164 fps=0.7 q=33.4 size=     768KiB time=00:00:02.70 bitrate=2330.3kbits/s speed=0.0109x elapsed=0:04:07.78    \nframe=  165 fps=0.7 q=33.4 size=     768KiB time=00:00:02.71 bitrate=2316.0kbits/s speed=0.0109x elapsed=0:04:08.29    \nframe=  165 fps=0.7 q=33.4 size=     768KiB time=00:00:02.71 bitrate=2316.0kbits/s speed=0.0109x elapsed=0:04:08.82    \nframe=  167 fps=0.7 q=28.8 size=     768KiB time=00:00:02.75 bitrate=2287.9kbits/s speed=0.011x elapsed=0:04:09.35    \nframe=  167 fps=0.7 q=28.8 size=     768KiB time=00:00:02.75 bitrate=2287.9kbits/s speed=0.011x elapsed=0:04:09.88    \nframe=  168 fps=0.7 q=28.4 size=     768KiB time=00:00:02.76 bitrate=2274.1kbits/s speed=0.011x elapsed=0:04:10.44    \nframe=  168 fps=0.7 q=28.4 size=     768KiB time=00:00:02.76 bitrate=2274.1kbits/s speed=0.011x elapsed=0:04:10.95    \nframe=  168 fps=0.7 q=28.4 size=     768KiB time=00:00:02.76 bitrate=2274.1kbits/s speed=0.011x elapsed=0:04:11.48    \nframe=  168 fps=0.7 q=28.4 size=     768KiB time=00:00:02.76 bitrate=2274.1kbits/s speed=0.011x elapsed=0:04:12.04    \nframe=  168 fps=0.7 q=28.4 size=     768KiB time=00:00:02.76 bitrate=2274.1kbits/s speed=0.011x elapsed=0:04:12.64    \nframe=  170 fps=0.7 q=29.0 size=     768KiB time=00:00:02.80 bitrate=2247.1kbits/s speed=0.0111x elapsed=0:04:13.24    \nframe=  170 fps=0.7 q=29.0 size=     768KiB time=00:00:02.80 bitrate=2247.1kbits/s speed=0.011x elapsed=0:04:13.77    \nframe=  170 fps=0.7 q=29.0 size=     768KiB time=00:00:02.80 bitrate=2247.1kbits/s speed=0.011x elapsed=0:04:14.33    \nframe=  171 fps=0.7 q=32.4 size=     768KiB time=00:00:02.81 bitrate=2233.8kbits/s speed=0.0111x elapsed=0:04:14.86    \nframe=  171 fps=0.7 q=32.4 size=     768KiB time=00:00:02.81 bitrate=2233.8kbits/s speed=0.011x elapsed=0:04:15.41    \nframe=  172 fps=0.7 q=34.1 size=     768KiB time=00:00:02.83 bitrate=2220.6kbits/s speed=0.0111x elapsed=0:04:15.96    \nframe=  172 fps=0.7 q=34.1 size=     768KiB time=00:00:02.83 bitrate=2220.6kbits/s speed=0.011x elapsed=0:04:16.52    \nframe=  173 fps=0.7 q=33.4 size=     768KiB time=00:00:02.85 bitrate=2207.7kbits/s speed=0.0111x elapsed=0:04:17.04    \nframe=  174 fps=0.7 q=32.5 size=     768KiB time=00:00:02.86 bitrate=2194.8kbits/s speed=0.0111x elapsed=0:04:17.70    \nframe=  174 fps=0.7 q=32.5 size=     768KiB time=00:00:02.86 bitrate=2194.8kbits/s speed=0.0111x elapsed=0:04:18.29    \nframe=  174 fps=0.7 q=32.5 size=     768KiB time=00:00:02.86 bitrate=2194.8kbits/s speed=0.0111x elapsed=0:04:18.83    \nframe=  175 fps=0.7 q=28.9 size=     768KiB time=00:00:02.88 bitrate=2182.1kbits/s speed=0.0111x elapsed=0:04:19.39    \nframe=  175 fps=0.7 q=28.9 size=     768KiB time=00:00:02.88 bitrate=2182.1kbits/s speed=0.0111x elapsed=0:04:19.93    \nframe=  175 fps=0.7 q=28.9 size=     768KiB time=00:00:02.88 bitrate=2182.1kbits/s speed=0.0111x elapsed=0:04:20.52    \nframe=  175 fps=0.7 q=28.9 size=     768KiB time=00:00:02.88 bitrate=2182.1kbits/s speed=0.011x elapsed=0:04:21.10    \nframe=  175 fps=0.7 q=28.9 size=     768KiB time=00:00:02.88 bitrate=2182.1kbits/s speed=0.011x elapsed=0:04:21.71    \nframe=  175 fps=0.7 q=28.9 size=     768KiB time=00:00:02.88 bitrate=2182.1kbits/s speed=0.011x elapsed=0:04:22.32    \nframe=  175 fps=0.7 q=28.9 size=     768KiB time=00:00:02.88 bitrate=2182.1kbits/s speed=0.011x elapsed=0:04:22.86    \nframe=  175 fps=0.7 q=28.9 size=     768KiB time=00:00:02.88 bitrate=2182.1kbits/s speed=0.0109x elapsed=0:04:23.41    \nframe=  176 fps=0.7 q=31.4 size=     768KiB time=00:00:02.90 bitrate=2169.6kbits/s speed=0.011x elapsed=0:04:23.96    \nframe=  176 fps=0.7 q=31.4 size=     768KiB time=00:00:02.90 bitrate=2169.6kbits/s speed=0.011x elapsed=0:04:24.53    \nframe=  177 fps=0.7 q=33.0 size=     768KiB time=00:00:02.91 bitrate=2157.2kbits/s speed=0.011x elapsed=0:04:25.06    \nframe=  177 fps=0.7 q=33.0 size=     768KiB time=00:00:02.91 bitrate=2157.2kbits/s speed=0.011x elapsed=0:04:25.59    \nframe=  177 fps=0.7 q=33.0 size=     768KiB time=00:00:02.91 bitrate=2157.2kbits/s speed=0.011x elapsed=0:04:26.10    \nframe=  177 fps=0.7 q=33.0 size=     768KiB time=00:00:02.91 bitrate=2157.2kbits/s speed=0.0109x elapsed=0:04:26.63    \nframe=  177 fps=0.7 q=33.0 size=     768KiB time=00:00:02.91 bitrate=2157.2kbits/s speed=0.0109x elapsed=0:04:27.18    \nframe=  178 fps=0.7 q=28.8 size=     768KiB time=00:00:02.93 bitrate=2144.9kbits/s speed=0.011x elapsed=0:04:27.78    \nframe=  179 fps=0.7 q=32.4 size=     768KiB time=00:00:02.95 bitrate=2132.8kbits/s speed=0.011x elapsed=0:04:28.31    \nframe=  179 fps=0.7 q=32.4 size=     768KiB time=00:00:02.95 bitrate=2132.8kbits/s speed=0.011x elapsed=0:04:28.88    \nframe=  179 fps=0.7 q=32.4 size=     768KiB time=00:00:02.95 bitrate=2132.8kbits/s speed=0.0109x elapsed=0:04:29.49    \nframe=  179 fps=0.7 q=32.4 size=     768KiB time=00:00:02.95 bitrate=2132.8kbits/s speed=0.0109x elapsed=0:04:30.04    \nframe=  179 fps=0.7 q=32.4 size=     768KiB time=00:00:02.95 bitrate=2132.8kbits/s speed=0.0109x elapsed=0:04:30.61    \nframe=  179 fps=0.7 q=32.4 size=     768KiB time=00:00:02.95 bitrate=2132.8kbits/s speed=0.0109x elapsed=0:04:31.16    \nframe=  179 fps=0.7 q=32.4 size=     768KiB time=00:00:02.95 bitrate=2132.8kbits/s speed=0.0109x elapsed=0:04:31.72    \nframe=  179 fps=0.7 q=32.4 size=     768KiB time=00:00:02.95 bitrate=2132.8kbits/s speed=0.0108x elapsed=0:04:32.29    \nframe=  180 fps=0.7 q=33.1 size=     768KiB time=00:00:02.96 bitrate=2120.8kbits/s speed=0.0109x elapsed=0:04:32.82    \nframe=  180 fps=0.7 q=33.1 size=     768KiB time=00:00:02.96 bitrate=2120.8kbits/s speed=0.0109x elapsed=0:04:33.35    \nframe=  180 fps=0.7 q=33.1 size=     768KiB time=00:00:02.96 bitrate=2120.8kbits/s speed=0.0108x elapsed=0:04:33.88    \nframe=  180 fps=0.7 q=33.1 size=     768KiB time=00:00:02.96 bitrate=2120.8kbits/s speed=0.0108x elapsed=0:04:34.41    \nframe=  182 fps=0.7 q=28.7 size=     768KiB time=00:00:03.00 bitrate=2097.3kbits/s speed=0.0109x elapsed=0:04:34.94    \nframe=  182 fps=0.7 q=28.7 size=     768KiB time=00:00:03.00 bitrate=2097.3kbits/s speed=0.0109x elapsed=0:04:35.55    \nframe=  182 fps=0.7 q=28.7 size=     768KiB time=00:00:03.00 bitrate=2097.3kbits/s speed=0.0109x elapsed=0:04:36.07    \nframe=  183 fps=0.7 q=27.6 size=     768KiB time=00:00:03.01 bitrate=2085.7kbits/s speed=0.0109x elapsed=0:04:36.60    \nframe=  184 fps=0.7 q=33.2 size=     768KiB time=00:00:03.03 bitrate=2074.2kbits/s speed=0.0109x elapsed=0:04:37.17    \nframe=  184 fps=0.7 q=33.2 size=     768KiB time=00:00:03.03 bitrate=2074.2kbits/s speed=0.0109x elapsed=0:04:37.74    \nframe=  185 fps=0.7 q=33.3 size=     768KiB time=00:00:03.05 bitrate=2062.9kbits/s speed=0.011x elapsed=0:04:38.29    \nframe=  186 fps=0.7 q=34.1 size=     768KiB time=00:00:03.06 bitrate=2051.7kbits/s speed=0.011x elapsed=0:04:38.81    \nframe=  186 fps=0.7 q=34.1 size=     768KiB time=00:00:03.06 bitrate=2051.7kbits/s speed=0.011x elapsed=0:04:39.33    \nframe=  187 fps=0.7 q=28.8 size=     768KiB time=00:00:03.08 bitrate=2040.6kbits/s speed=0.011x elapsed=0:04:39.86    \nframe=  187 fps=0.7 q=28.8 size=     768KiB time=00:00:03.08 bitrate=2040.6kbits/s speed=0.011x elapsed=0:04:40.39    \nframe=  187 fps=0.7 q=28.8 size=     768KiB time=00:00:03.08 bitrate=2040.6kbits/s speed=0.011x elapsed=0:04:40.96    \nframe=  188 fps=0.7 q=28.3 size=     768KiB time=00:00:03.10 bitrate=2029.6kbits/s speed=0.011x elapsed=0:04:41.49    \nframe=  189 fps=0.7 q=34.1 size=     768KiB time=00:00:03.11 bitrate=2018.8kbits/s speed=0.0111x elapsed=0:04:42.01    \nframe=  189 fps=0.7 q=34.1 size=     768KiB time=00:00:03.11 bitrate=2018.8kbits/s speed=0.011x elapsed=0:04:42.63    \nframe=  189 fps=0.7 q=34.1 size=     768KiB time=00:00:03.11 bitrate=2018.8kbits/s speed=0.011x elapsed=0:04:43.21    \nframe=  189 fps=0.7 q=34.1 size=     768KiB time=00:00:03.11 bitrate=2018.8kbits/s speed=0.011x elapsed=0:04:43.76    \nframe=  189 fps=0.7 q=34.1 size=     768KiB time=00:00:03.11 bitrate=2018.8kbits/s speed=0.011x elapsed=0:04:44.37    \nframe=  189 fps=0.7 q=34.1 size=     768KiB time=00:00:03.11 bitrate=2018.8kbits/s speed=0.0109x elapsed=0:04:44.96    \nframe=  189 fps=0.7 q=34.1 size=     768KiB time=00:00:03.11 bitrate=2018.8kbits/s speed=0.0109x elapsed=0:04:45.56    \nframe=  189 fps=0.7 q=34.1 size=     768KiB time=00:00:03.11 bitrate=2018.8kbits/s speed=0.0109x elapsed=0:04:46.13    \nframe=  190 fps=0.7 q=33.2 size=     768KiB time=00:00:03.13 bitrate=2008.0kbits/s speed=0.0109x elapsed=0:04:46.66    \nframe=  191 fps=0.7 q=33.0 size=     768KiB time=00:00:03.15 bitrate=1997.4kbits/s speed=0.011x elapsed=0:04:47.19    \nframe=  192 fps=0.7 q=28.6 size=     768KiB time=00:00:03.16 bitrate=1986.9kbits/s speed=0.011x elapsed=0:04:47.74    \nframe=  193 fps=0.7 q=27.9 size=     768KiB time=00:00:03.18 bitrate=1976.5kbits/s speed=0.011x elapsed=0:04:48.32    \nframe=  193 fps=0.7 q=27.9 size=     768KiB time=00:00:03.18 bitrate=1976.5kbits/s speed=0.011x elapsed=0:04:48.85    \nframe=  194 fps=0.7 q=34.2 size=     768KiB time=00:00:03.20 bitrate=1966.2kbits/s speed=0.0111x elapsed=0:04:49.38    \nframe=  194 fps=0.7 q=34.2 size=     768KiB time=00:00:03.20 bitrate=1966.2kbits/s speed=0.011x elapsed=0:04:49.91    \nframe=  194 fps=0.7 q=34.2 size=     768KiB time=00:00:03.20 bitrate=1966.2kbits/s speed=0.011x elapsed=0:04:50.43    \nframe=  194 fps=0.7 q=34.2 size=     768KiB time=00:00:03.20 bitrate=1966.2kbits/s speed=0.011x elapsed=0:04:50.95    \nframe=  195 fps=0.7 q=33.1 size=     768KiB time=00:00:03.21 bitrate=1956.0kbits/s speed=0.011x elapsed=0:04:51.47    \nframe=  195 fps=0.7 q=33.1 size=     768KiB time=00:00:03.21 bitrate=1956.0kbits/s speed=0.011x elapsed=0:04:51.99    \nframe=  196 fps=0.7 q=33.3 size=     768KiB time=00:00:03.23 bitrate=1945.9kbits/s speed=0.0111x elapsed=0:04:52.54    \nframe=  197 fps=0.7 q=28.6 size=     768KiB time=00:00:03.25 bitrate=1935.9kbits/s speed=0.0111x elapsed=0:04:53.08    \nframe=  197 fps=0.7 q=28.6 size=     768KiB time=00:00:03.25 bitrate=1935.9kbits/s speed=0.0111x elapsed=0:04:53.61    \nframe=  198 fps=0.7 q=32.8 size=    1024KiB time=00:00:03.26 bitrate=2568.0kbits/s speed=0.0111x elapsed=0:04:54.13    \nframe=  199 fps=0.7 q=33.1 size=    1024KiB time=00:00:03.28 bitrate=2555.0kbits/s speed=0.0111x elapsed=0:04:54.68    \nframe=  200 fps=0.7 q=29.1 size=    1024KiB time=00:00:03.30 bitrate=2542.1kbits/s speed=0.0112x elapsed=0:04:55.20    \nframe=  201 fps=0.7 q=31.1 size=    1024KiB time=00:00:03.31 bitrate=2529.3kbits/s speed=0.0112x elapsed=0:04:55.72    \nframe=  202 fps=0.7 q=33.0 size=    1024KiB time=00:00:03.33 bitrate=2516.7kbits/s speed=0.0113x elapsed=0:04:56.25    \nframe=  202 fps=0.7 q=33.0 size=    1024KiB time=00:00:03.33 bitrate=2516.7kbits/s speed=0.0112x elapsed=0:04:56.78    \nframe=  202 fps=0.7 q=33.0 size=    1024KiB time=00:00:03.33 bitrate=2516.7kbits/s speed=0.0112x elapsed=0:04:57.31    \nframe=  204 fps=0.7 q=33.2 size=    1024KiB time=00:00:03.36 bitrate=2491.8kbits/s speed=0.0113x elapsed=0:04:57.84    \nframe=  206 fps=0.7 q=31.8 size=    1024KiB time=00:00:03.40 bitrate=2467.3kbits/s speed=0.0114x elapsed=0:04:58.38    \nframe=  206 fps=0.7 q=31.8 size=    1024KiB time=00:00:03.40 bitrate=2467.3kbits/s speed=0.0114x elapsed=0:04:58.91    \nframe=  206 fps=0.7 q=31.8 size=    1024KiB time=00:00:03.40 bitrate=2467.3kbits/s speed=0.0114x elapsed=0:04:59.43    \nframe=  206 fps=0.7 q=31.8 size=    1024KiB time=00:00:03.40 bitrate=2467.3kbits/s speed=0.0113x elapsed=0:04:59.94    \nframe=  206 fps=0.7 q=31.8 size=    1024KiB time=00:00:03.40 bitrate=2467.3kbits/s speed=0.0113x elapsed=0:05:00.48    \nframe=  206 fps=0.7 q=31.8 size=    1024KiB time=00:00:03.40 bitrate=2467.3kbits/s speed=0.0113x elapsed=0:05:01.01    \nframe=  206 fps=0.7 q=31.8 size=    1024KiB time=00:00:03.40 bitrate=2467.3kbits/s speed=0.0113x elapsed=0:05:01.55    \nframe=  207 fps=0.7 q=33.2 size=    1024KiB time=00:00:03.41 bitrate=2455.3kbits/s speed=0.0113x elapsed=0:05:02.09    \nframe=  207 fps=0.7 q=33.2 size=    1024KiB time=00:00:03.41 bitrate=2455.3kbits/s speed=0.0113x elapsed=0:05:02.60    \nframe=  207 fps=0.7 q=33.2 size=    1024KiB time=00:00:03.41 bitrate=2455.3kbits/s speed=0.0113x elapsed=0:05:03.13    \nframe=  208 fps=0.7 q=33.2 size=    1024KiB time=00:00:03.43 bitrate=2443.4kbits/s speed=0.0113x elapsed=0:05:03.65    \nframe=  209 fps=0.7 q=29.0 size=    1024KiB time=00:00:03.45 bitrate=2431.6kbits/s speed=0.0113x elapsed=0:05:04.16    \nframe=  210 fps=0.7 q=27.9 size=    1024KiB time=00:00:03.45 bitrate=2431.6kbits/s speed=0.0113x elapsed=0:05:04.69    \nframe=  210 fps=0.7 q=27.9 size=    1024KiB time=00:00:03.46 bitrate=2419.9kbits/s speed=0.0114x elapsed=0:05:05.23    \nframe=  211 fps=0.7 q=33.0 size=    1024KiB time=00:00:03.48 bitrate=2408.3kbits/s speed=0.0114x elapsed=0:05:05.76    \nframe=  212 fps=0.7 q=28.9 size=    1024KiB time=00:00:03.50 bitrate=2396.8kbits/s speed=0.0114x elapsed=0:05:06.30    \nframe=  213 fps=0.7 q=32.2 size=    1024KiB time=00:00:03.51 bitrate=2385.5kbits/s speed=0.0115x elapsed=0:05:06.82    \nframe=  214 fps=0.7 q=33.1 size=    1024KiB time=00:00:03.53 bitrate=2374.2kbits/s speed=0.0115x elapsed=0:05:07.37    \nframe=  214 fps=0.7 q=33.1 size=    1024KiB time=00:00:03.53 bitrate=2374.2kbits/s speed=0.0115x elapsed=0:05:07.89    \nframe=  214 fps=0.7 q=33.1 size=    1024KiB time=00:00:03.53 bitrate=2374.2kbits/s speed=0.0115x elapsed=0:05:08.42    \nframe=  214 fps=0.7 q=33.1 size=    1024KiB time=00:00:03.53 bitrate=2374.2kbits/s speed=0.0114x elapsed=0:05:08.98    \nframe=  215 fps=0.7 q=33.3 size=    1024KiB time=00:00:03.55 bitrate=2363.1kbits/s speed=0.0115x elapsed=0:05:09.51    \nframe=  215 fps=0.7 q=33.3 size=    1024KiB time=00:00:03.55 bitrate=2363.1kbits/s speed=0.0115x elapsed=0:05:10.04    \nframe=  215 fps=0.7 q=33.3 size=    1024KiB time=00:00:03.55 bitrate=2363.1kbits/s speed=0.0114x elapsed=0:05:10.56    \nframe=  216 fps=0.7 q=32.4 size=    1024KiB time=00:00:03.56 bitrate=2352.0kbits/s speed=0.0115x elapsed=0:05:11.12    \nframe=  217 fps=0.7 q=28.8 size=    1024KiB time=00:00:03.58 bitrate=2341.1kbits/s speed=0.0115x elapsed=0:05:11.65    \nframe=  217 fps=0.7 q=28.8 size=    1024KiB time=00:00:03.58 bitrate=2341.1kbits/s speed=0.0115x elapsed=0:05:12.17    \nframe=  219 fps=0.7 q=33.1 size=    1024KiB time=00:00:03.61 bitrate=2319.5kbits/s speed=0.0116x elapsed=0:05:12.70    \nframe=  220 fps=0.7 q=28.5 size=    1024KiB time=00:00:03.63 bitrate=2308.9kbits/s speed=0.0116x elapsed=0:05:13.25    \nframe=  220 fps=0.7 q=28.5 size=    1024KiB time=00:00:03.63 bitrate=2308.9kbits/s speed=0.0116x elapsed=0:05:13.78    \nframe=  220 fps=0.7 q=28.5 size=    1024KiB time=00:00:03.63 bitrate=2308.9kbits/s speed=0.0116x elapsed=0:05:14.30    \nframe=  221 fps=0.7 q=31.4 size=    1024KiB time=00:00:03.65 bitrate=2298.3kbits/s speed=0.0116x elapsed=0:05:14.82    \nframe=  221 fps=0.7 q=31.4 size=    1024KiB time=00:00:03.65 bitrate=2298.3kbits/s speed=0.0116x elapsed=0:05:15.36    \nframe=  221 fps=0.7 q=31.4 size=    1024KiB time=00:00:03.65 bitrate=2298.3kbits/s speed=0.0116x elapsed=0:05:15.89    \nframe=  221 fps=0.7 q=31.4 size=    1024KiB time=00:00:03.65 bitrate=2298.3kbits/s speed=0.0115x elapsed=0:05:16.42    \nframe=  221 fps=0.7 q=31.4 size=    1024KiB time=00:00:03.65 bitrate=2298.3kbits/s speed=0.0115x elapsed=0:05:16.96    \nframe=  222 fps=0.7 q=34.0 size=    1024KiB time=00:00:03.66 bitrate=2287.9kbits/s speed=0.0115x elapsed=0:05:17.51    \nframe=  223 fps=0.7 q=29.0 size=    1024KiB time=00:00:03.68 bitrate=2277.5kbits/s speed=0.0116x elapsed=0:05:18.07    \nframe=  223 fps=0.7 q=29.0 size=    1024KiB time=00:00:03.68 bitrate=2277.5kbits/s speed=0.0116x elapsed=0:05:18.70    \nframe=  224 fps=0.7 q=27.7 size=    1024KiB time=00:00:03.70 bitrate=2267.3kbits/s speed=0.0116x elapsed=0:05:19.35    \nframe=  224 fps=0.7 q=27.7 size=    1024KiB time=00:00:03.70 bitrate=2267.3kbits/s speed=0.0116x elapsed=0:05:20.01    \nframe=  224 fps=0.7 q=27.7 size=    1024KiB time=00:00:03.70 bitrate=2267.3kbits/s speed=0.0115x elapsed=0:05:20.66    \nframe=  224 fps=0.7 q=27.7 size=    1024KiB time=00:00:03.70 bitrate=2267.3kbits/s speed=0.0115x elapsed=0:05:21.19    \nframe=  224 fps=0.7 q=27.7 size=    1024KiB time=00:00:03.70 bitrate=2267.3kbits/s speed=0.0115x elapsed=0:05:21.71    \nframe=  224 fps=0.7 q=27.7 size=    1024KiB time=00:00:03.70 bitrate=2267.3kbits/s speed=0.0115x elapsed=0:05:22.24    \nframe=  225 fps=0.7 q=33.2 size=    1024KiB time=00:00:03.71 bitrate=2257.1kbits/s speed=0.0115x elapsed=0:05:22.78    \nframe=  226 fps=0.7 q=28.6 size=    1024KiB time=00:00:03.73 bitrate=2247.0kbits/s speed=0.0115x elapsed=0:05:23.30    \nframe=  227 fps=0.7 q=32.5 size=    1024KiB time=00:00:03.75 bitrate=2237.1kbits/s speed=0.0116x elapsed=0:05:23.85    \nframe=  227 fps=0.7 q=32.5 size=    1024KiB time=00:00:03.75 bitrate=2237.1kbits/s speed=0.0116x elapsed=0:05:24.41    \nframe=  228 fps=0.7 q=33.4 size=    1024KiB time=00:00:03.76 bitrate=2227.2kbits/s speed=0.0116x elapsed=0:05:24.98    \nframe=  229 fps=0.7 q=33.2 size=    1024KiB time=00:00:03.76 bitrate=2227.2kbits/s speed=0.0116x elapsed=0:05:25.55    \nframe=  229 fps=0.7 q=33.2 size=    1024KiB time=00:00:03.78 bitrate=2217.3kbits/s speed=0.0116x elapsed=0:05:26.18    \nframe=  229 fps=0.7 q=33.2 size=    1024KiB time=00:00:03.78 bitrate=2217.3kbits/s speed=0.0116x elapsed=0:05:26.79    \nframe=  229 fps=0.7 q=33.2 size=    1024KiB time=00:00:03.78 bitrate=2217.3kbits/s speed=0.0116x elapsed=0:05:27.42    \nframe=  229 fps=0.7 q=33.2 size=    1024KiB time=00:00:03.78 bitrate=2217.3kbits/s speed=0.0115x elapsed=0:05:28.03    \nframe=  229 fps=0.7 q=33.2 size=    1024KiB time=00:00:03.78 bitrate=2217.3kbits/s speed=0.0115x elapsed=0:05:28.69    \nframe=  229 fps=0.7 q=33.2 size=    1024KiB time=00:00:03.78 bitrate=2217.3kbits/s speed=0.0115x elapsed=0:05:29.23    \nframe=  229 fps=0.7 q=33.2 size=    1024KiB time=00:00:03.78 bitrate=2217.3kbits/s speed=0.0115x elapsed=0:05:29.78    \nframe=  229 fps=0.7 q=33.2 size=    1024KiB time=00:00:03.78 bitrate=2217.3kbits/s speed=0.0115x elapsed=0:05:30.33    \nframe=  229 fps=0.7 q=33.2 size=    1024KiB time=00:00:03.78 bitrate=2217.3kbits/s speed=0.0114x elapsed=0:05:30.91    \nframe=  229 fps=0.7 q=33.2 size=    1024KiB time=00:00:03.78 bitrate=2217.3kbits/s speed=0.0114x elapsed=0:05:31.45    \nframe=  230 fps=0.7 q=33.1 size=    1024KiB time=00:00:03.78 bitrate=2217.3kbits/s speed=0.0114x elapsed=0:05:32.03    \nframe=  231 fps=0.7 q=41.0 size=    1024KiB time=00:00:03.81 bitrate=2198.0kbits/s speed=0.0115x elapsed=0:05:32.59    \nframe=  231 fps=0.7 q=41.0 size=    1024KiB time=00:00:03.81 bitrate=2198.0kbits/s speed=0.0115x elapsed=0:05:33.12    \nframe=  231 fps=0.7 q=41.0 size=    1024KiB time=00:00:03.81 bitrate=2198.0kbits/s speed=0.0114x elapsed=0:05:33.64    \nframe=  231 fps=0.7 q=41.0 size=    1024KiB time=00:00:03.81 bitrate=2198.0kbits/s speed=0.0114x elapsed=0:05:34.21    \nframe=  232 fps=0.7 q=44.0 size=    1024KiB time=00:00:03.83 bitrate=2188.4kbits/s speed=0.0115x elapsed=0:05:34.75    \nframe=  233 fps=0.7 q=44.0 size=    1024KiB time=00:00:03.85 bitrate=2179.0kbits/s speed=0.0115x elapsed=0:05:35.29    \nframe=  234 fps=0.7 q=38.5 size=    1024KiB time=00:00:03.86 bitrate=2169.6kbits/s speed=0.0115x elapsed=0:05:35.81    \nframe=  234 fps=0.7 q=38.5 size=    1024KiB time=00:00:03.86 bitrate=2169.6kbits/s speed=0.0115x elapsed=0:05:36.41    \nframe=  234 fps=0.7 q=38.5 size=    1024KiB time=00:00:03.86 bitrate=2169.6kbits/s speed=0.0115x elapsed=0:05:36.98    \nframe=  234 fps=0.7 q=38.5 size=    1024KiB time=00:00:03.86 bitrate=2169.6kbits/s speed=0.0115x elapsed=0:05:37.59    \nframe=  235 fps=0.7 q=44.0 size=    1024KiB time=00:00:03.88 bitrate=2160.2kbits/s speed=0.0115x elapsed=0:05:38.20    \nframe=  235 fps=0.7 q=44.0 size=    1024KiB time=00:00:03.88 bitrate=2160.2kbits/s speed=0.0115x elapsed=0:05:38.71    \nframe=  235 fps=0.7 q=44.0 size=    1024KiB time=00:00:03.88 bitrate=2160.2kbits/s speed=0.0114x elapsed=0:05:39.26    \nframe=  235 fps=0.7 q=44.0 size=    1024KiB time=00:00:03.88 bitrate=2160.2kbits/s speed=0.0114x elapsed=0:05:39.81    \nframe=  235 fps=0.7 q=44.0 size=    1024KiB time=00:00:03.88 bitrate=2160.2kbits/s speed=0.0114x elapsed=0:05:40.34    \nframe=  237 fps=0.7 q=44.0 size=    1024KiB time=00:00:03.91 bitrate=2141.9kbits/s speed=0.0115x elapsed=0:05:40.90    \nframe=  237 fps=0.7 q=44.0 size=    1024KiB time=00:00:03.91 bitrate=2141.9kbits/s speed=0.0115x elapsed=0:05:41.45    \nframe=  238 fps=0.7 q=39.4 size=    1024KiB time=00:00:03.93 bitrate=2132.8kbits/s speed=0.0115x elapsed=0:05:42.09    \nframe=  239 fps=0.7 q=44.0 size=    1024KiB time=00:00:03.95 bitrate=2123.8kbits/s speed=0.0115x elapsed=0:05:42.66    \nframe=  239 fps=0.7 q=44.0 size=    1024KiB time=00:00:03.95 bitrate=2123.8kbits/s speed=0.0115x elapsed=0:05:43.21    \nframe=  239 fps=0.7 q=44.0 size=    1024KiB time=00:00:03.95 bitrate=2123.8kbits/s speed=0.0115x elapsed=0:05:43.75    \nframe=  240 fps=0.7 q=43.0 size=    1024KiB time=00:00:03.96 bitrate=2114.9kbits/s speed=0.0115x elapsed=0:05:44.36    \nframe=  240 fps=0.7 q=43.0 size=    1024KiB time=00:00:03.96 bitrate=2114.9kbits/s speed=0.0115x elapsed=0:05:44.95    \nframe=  240 fps=0.7 q=43.0 size=    1024KiB time=00:00:03.96 bitrate=2114.9kbits/s speed=0.0115x elapsed=0:05:45.47    \nframe=  240 fps=0.7 q=43.0 size=    1024KiB time=00:00:03.96 bitrate=2114.9kbits/s speed=0.0115x elapsed=0:05:46.07    \nframe=  242 fps=0.7 q=43.0 size=    1024KiB time=00:00:04.00 bitrate=2097.2kbits/s speed=0.0115x elapsed=0:05:46.66    \nframe=  242 fps=0.7 q=43.0 size=    1024KiB time=00:00:04.00 bitrate=2097.2kbits/s speed=0.0115x elapsed=0:05:47.22    \nframe=  243 fps=0.7 q=38.7 size=    1024KiB time=00:00:04.01 bitrate=2088.5kbits/s speed=0.0115x elapsed=0:05:47.76    \nframe=  245 fps=0.7 q=36.8 size=    1024KiB time=00:00:04.05 bitrate=2071.3kbits/s speed=0.0116x elapsed=0:05:48.28    \nframe=  245 fps=0.7 q=36.8 size=    1024KiB time=00:00:04.05 bitrate=2071.3kbits/s speed=0.0116x elapsed=0:05:48.81    \nframe=  246 fps=0.7 q=42.0 size=    1024KiB time=00:00:04.06 bitrate=2062.9kbits/s speed=0.0116x elapsed=0:05:49.34    \nframe=  246 fps=0.7 q=42.0 size=    1024KiB time=00:00:04.06 bitrate=2062.9kbits/s speed=0.0116x elapsed=0:05:49.89    \nframe=  246 fps=0.7 q=42.0 size=    1024KiB time=00:00:04.06 bitrate=2062.9kbits/s speed=0.0116x elapsed=0:05:50.53    \nframe=  246 fps=0.7 q=42.0 size=    1024KiB time=00:00:04.06 bitrate=2062.9kbits/s speed=0.0116x elapsed=0:05:51.08    \nframe=  246 fps=0.7 q=42.0 size=    1024KiB time=00:00:04.06 bitrate=2062.9kbits/s speed=0.0116x elapsed=0:05:51.61    \nframe=  246 fps=0.7 q=42.0 size=    1024KiB time=00:00:04.06 bitrate=2062.9kbits/s speed=0.0115x elapsed=0:05:52.15    \nframe=  246 fps=0.7 q=42.0 size=    1024KiB time=00:00:04.06 bitrate=2062.9kbits/s speed=0.0115x elapsed=0:05:52.74    \nframe=  246 fps=0.7 q=42.0 size=    1024KiB time=00:00:04.06 bitrate=2062.9kbits/s speed=0.0115x elapsed=0:05:53.28    \nframe=  246 fps=0.7 q=42.0 size=    1024KiB time=00:00:04.06 bitrate=2062.9kbits/s speed=0.0115x elapsed=0:05:53.82    \nframe=  246 fps=0.7 q=42.0 size=    1024KiB time=00:00:04.06 bitrate=2062.9kbits/s speed=0.0115x elapsed=0:05:54.35    \nframe=  246 fps=0.7 q=42.0 size=    1024KiB time=00:00:04.06 bitrate=2062.9kbits/s speed=0.0115x elapsed=0:05:54.88    \nframe=  246 fps=0.7 q=42.0 size=    1024KiB time=00:00:04.06 bitrate=2062.9kbits/s speed=0.0114x elapsed=0:05:55.43    \nframe=  246 fps=0.7 q=42.0 size=    1024KiB time=00:00:04.06 bitrate=2062.9kbits/s speed=0.0114x elapsed=0:05:55.96    \nframe=  246 fps=0.7 q=42.0 size=    1024KiB time=00:00:04.06 bitrate=2062.9kbits/s speed=0.0114x elapsed=0:05:56.51    \nframe=  246 fps=0.7 q=42.0 size=    1024KiB time=00:00:04.06 bitrate=2062.9kbits/s speed=0.0114x elapsed=0:05:57.05    \nframe=  247 fps=0.7 q=42.0 size=    1024KiB time=00:00:04.08 bitrate=2054.4kbits/s speed=0.0114x elapsed=0:05:57.60    \nframe=  247 fps=0.7 q=42.0 size=    1024KiB time=00:00:04.08 bitrate=2054.4kbits/s speed=0.0114x elapsed=0:05:58.15    \nframe=  247 fps=0.7 q=42.0 size=    1024KiB time=00:00:04.08 bitrate=2054.4kbits/s speed=0.0114x elapsed=0:05:58.68    \nframe=  248 fps=0.7 q=42.0 size=    1024KiB time=00:00:04.10 bitrate=2046.1kbits/s speed=0.0114x elapsed=0:05:59.23    \nframe=  248 fps=0.7 q=42.0 size=    1024KiB time=00:00:04.10 bitrate=2046.1kbits/s speed=0.0114x elapsed=0:05:59.77    \nframe=  248 fps=0.7 q=42.0 size=    1024KiB time=00:00:04.10 bitrate=2046.1kbits/s speed=0.0114x elapsed=0:06:00.34    \nframe=  249 fps=0.7 q=37.8 size=    1024KiB time=00:00:04.11 bitrate=2037.8kbits/s speed=0.0114x elapsed=0:06:00.89    \nframe=  250 fps=0.7 q=41.0 size=    1280KiB time=00:00:04.13 bitrate=2537.0kbits/s speed=0.0114x elapsed=0:06:01.41    \nframe=  250 fps=0.7 q=41.0 size=    1280KiB time=00:00:04.13 bitrate=2537.0kbits/s speed=0.0114x elapsed=0:06:01.95    \nframe=  251 fps=0.7 q=42.0 size=    1280KiB time=00:00:04.15 bitrate=2526.8kbits/s speed=0.0114x elapsed=0:06:02.49    \nframe=  252 fps=0.7 q=34.8 size=    1280KiB time=00:00:04.16 bitrate=2516.7kbits/s speed=0.0115x elapsed=0:06:03.03    \nframe=  252 fps=0.7 q=34.8 size=    1280KiB time=00:00:04.16 bitrate=2516.7kbits/s speed=0.0115x elapsed=0:06:03.58    \nframe=  252 fps=0.7 q=34.8 size=    1280KiB time=00:00:04.16 bitrate=2516.7kbits/s speed=0.0114x elapsed=0:06:04.10    \nframe=  252 fps=0.7 q=34.8 size=    1280KiB time=00:00:04.16 bitrate=2516.7kbits/s speed=0.0114x elapsed=0:06:04.64    \nframe=  252 fps=0.7 q=34.8 size=    1280KiB time=00:00:04.16 bitrate=2516.7kbits/s speed=0.0114x elapsed=0:06:05.20    \nframe=  253 fps=0.7 q=35.6 size=    1280KiB time=00:00:04.18 bitrate=2506.6kbits/s speed=0.0114x elapsed=0:06:05.75    \nframe=  253 fps=0.7 q=35.6 size=    1280KiB time=00:00:04.18 bitrate=2506.6kbits/s speed=0.0114x elapsed=0:06:06.39    \nframe=  253 fps=0.7 q=35.6 size=    1280KiB time=00:00:04.18 bitrate=2506.6kbits/s speed=0.0114x elapsed=0:06:07.04    \nframe=  253 fps=0.7 q=35.6 size=    1280KiB time=00:00:04.18 bitrate=2506.6kbits/s speed=0.0114x elapsed=0:06:07.63    \nframe=  254 fps=0.7 q=37.1 size=    1280KiB time=00:00:04.20 bitrate=2496.7kbits/s speed=0.0114x elapsed=0:06:08.20    \nframe=  255 fps=0.7 q=40.0 size=    1280KiB time=00:00:04.21 bitrate=2486.8kbits/s speed=0.0114x elapsed=0:06:08.74    \nframe=  256 fps=0.7 q=39.3 size=    1280KiB time=00:00:04.23 bitrate=2477.0kbits/s speed=0.0115x elapsed=0:06:09.28    \nframe=  256 fps=0.7 q=39.3 size=    1280KiB time=00:00:04.23 bitrate=2477.0kbits/s speed=0.0114x elapsed=0:06:09.81    \nframe=  257 fps=0.7 q=43.0 size=    1280KiB time=00:00:04.25 bitrate=2467.3kbits/s speed=0.0115x elapsed=0:06:10.40    \nframe=  257 fps=0.7 q=43.0 size=    1280KiB time=00:00:04.25 bitrate=2467.3kbits/s speed=0.0115x elapsed=0:06:10.96    \nframe=  257 fps=0.7 q=43.0 size=    1280KiB time=00:00:04.25 bitrate=2467.3kbits/s speed=0.0114x elapsed=0:06:11.51    \nframe=  257 fps=0.7 q=43.0 size=    1280KiB time=00:00:04.25 bitrate=2467.3kbits/s speed=0.0114x elapsed=0:06:12.11    \nframe=  257 fps=0.7 q=43.0 size=    1280KiB time=00:00:04.25 bitrate=2467.3kbits/s speed=0.0114x elapsed=0:06:12.66    \nframe=  257 fps=0.7 q=43.0 size=    1280KiB time=00:00:04.25 bitrate=2467.3kbits/s speed=0.0114x elapsed=0:06:13.23    \nframe=  257 fps=0.7 q=43.0 size=    1280KiB time=00:00:04.25 bitrate=2467.3kbits/s speed=0.0114x elapsed=0:06:13.80    \nframe=  258 fps=0.7 q=43.0 size=    1280KiB time=00:00:04.26 bitrate=2457.7kbits/s speed=0.0114x elapsed=0:06:14.34    \nframe=  258 fps=0.7 q=43.0 size=    1280KiB time=00:00:04.26 bitrate=2457.7kbits/s speed=0.0114x elapsed=0:06:14.90    \nframe=  259 fps=0.7 q=44.0 size=    1280KiB time=00:00:04.28 bitrate=2448.1kbits/s speed=0.0114x elapsed=0:06:15.48    \nframe=  259 fps=0.7 q=44.0 size=    1280KiB time=00:00:04.28 bitrate=2448.1kbits/s speed=0.0114x elapsed=0:06:16.04    \nframe=  259 fps=0.7 q=44.0 size=    1280KiB time=00:00:04.28 bitrate=2448.1kbits/s speed=0.0114x elapsed=0:06:16.63    \nframe=  260 fps=0.7 q=31.9 size=    1280KiB time=00:00:04.30 bitrate=2438.6kbits/s speed=0.0114x elapsed=0:06:17.19    \nframe=  260 fps=0.7 q=31.9 size=    1280KiB time=00:00:04.30 bitrate=2438.6kbits/s speed=0.0114x elapsed=0:06:17.75    \nframe=  260 fps=0.7 q=31.9 size=    1280KiB time=00:00:04.30 bitrate=2438.6kbits/s speed=0.0114x elapsed=0:06:18.31    \nframe=  261 fps=0.7 q=40.0 size=    1280KiB time=00:00:04.31 bitrate=2429.2kbits/s speed=0.0114x elapsed=0:06:18.84    \nframe=  261 fps=0.7 q=40.0 size=    1280KiB time=00:00:04.31 bitrate=2429.2kbits/s speed=0.0114x elapsed=0:06:19.42    \nframe=  261 fps=0.7 q=40.0 size=    1280KiB time=00:00:04.31 bitrate=2429.2kbits/s speed=0.0114x elapsed=0:06:19.99    \nframe=  262 fps=0.7 q=41.0 size=    1280KiB time=00:00:04.33 bitrate=2419.9kbits/s speed=0.0114x elapsed=0:06:20.51    \nframe=  262 fps=0.7 q=41.0 size=    1280KiB time=00:00:04.33 bitrate=2419.9kbits/s speed=0.0114x elapsed=0:06:21.04    \nframe=  263 fps=0.7 q=41.0 size=    1280KiB time=00:00:04.35 bitrate=2410.6kbits/s speed=0.0114x elapsed=0:06:21.61    \nframe=  263 fps=0.7 q=41.0 size=    1280KiB time=00:00:04.35 bitrate=2410.6kbits/s speed=0.0114x elapsed=0:06:22.18    \nframe=  263 fps=0.7 q=41.0 size=    1280KiB time=00:00:04.35 bitrate=2410.6kbits/s speed=0.0114x elapsed=0:06:22.72    \nframe=  263 fps=0.7 q=41.0 size=    1280KiB time=00:00:04.35 bitrate=2410.6kbits/s speed=0.0113x elapsed=0:06:23.29    \nframe=  263 fps=0.7 q=41.0 size=    1280KiB time=00:00:04.35 bitrate=2410.6kbits/s speed=0.0113x elapsed=0:06:23.83    \nframe=  265 fps=0.7 q=31.8 size=    1280KiB time=00:00:04.36 bitrate=2401.4kbits/s speed=0.0114x elapsed=0:06:24.35    \nframe=  265 fps=0.7 q=31.8 size=    1280KiB time=00:00:04.38 bitrate=2392.3kbits/s speed=0.0114x elapsed=0:06:24.94    \nframe=  265 fps=0.7 q=31.8 size=    1280KiB time=00:00:04.38 bitrate=2392.3kbits/s speed=0.0114x elapsed=0:06:25.48    \nframe=  265 fps=0.7 q=31.8 size=    1280KiB time=00:00:04.38 bitrate=2392.3kbits/s speed=0.0114x elapsed=0:06:26.06    \nframe=  265 fps=0.7 q=31.8 size=    1280KiB time=00:00:04.38 bitrate=2392.3kbits/s speed=0.0113x elapsed=0:06:26.62    \nframe=  266 fps=0.7 q=39.0 size=    1280KiB time=00:00:04.40 bitrate=2383.2kbits/s speed=0.0114x elapsed=0:06:27.24    \nframe=  268 fps=0.7 q=31.1 size=    1280KiB time=00:00:04.43 bitrate=2365.3kbits/s speed=0.0114x elapsed=0:06:27.78    \nframe=  268 fps=0.7 q=31.1 size=    1280KiB time=00:00:04.43 bitrate=2365.3kbits/s speed=0.0114x elapsed=0:06:28.36    \nframe=  269 fps=0.7 q=37.3 size=    1280KiB time=00:00:04.45 bitrate=2356.4kbits/s speed=0.0114x elapsed=0:06:28.92    \nframe=  269 fps=0.7 q=37.3 size=    1280KiB time=00:00:04.45 bitrate=2356.4kbits/s speed=0.0114x elapsed=0:06:29.48    \nframe=  269 fps=0.7 q=37.3 size=    1280KiB time=00:00:04.45 bitrate=2356.4kbits/s speed=0.0114x elapsed=0:06:30.04    \nframe=  271 fps=0.7 q=30.9 size=    1280KiB time=00:00:04.48 bitrate=2338.9kbits/s speed=0.0115x elapsed=0:06:30.59    \nframe=  271 fps=0.7 q=30.9 size=    1280KiB time=00:00:04.48 bitrate=2338.9kbits/s speed=0.0115x elapsed=0:06:31.11    \nframe=  271 fps=0.7 q=30.9 size=    1280KiB time=00:00:04.48 bitrate=2338.9kbits/s speed=0.0114x elapsed=0:06:31.66    \nframe=  272 fps=0.7 q=37.0 size=    1280KiB time=00:00:04.50 bitrate=2330.2kbits/s speed=0.0115x elapsed=0:06:32.18    \nframe=  272 fps=0.7 q=37.0 size=    1280KiB time=00:00:04.50 bitrate=2330.2kbits/s speed=0.0115x elapsed=0:06:32.71    \nframe=  273 fps=0.7 q=38.0 size=    1280KiB time=00:00:04.51 bitrate=2321.6kbits/s speed=0.0115x elapsed=0:06:33.26    \nframe=  273 fps=0.7 q=38.0 size=    1280KiB time=00:00:04.51 bitrate=2321.6kbits/s speed=0.0115x elapsed=0:06:33.82    \nframe=  273 fps=0.7 q=38.0 size=    1280KiB time=00:00:04.51 bitrate=2321.6kbits/s speed=0.0115x elapsed=0:06:34.41    \nframe=  274 fps=0.7 q=31.0 size=    1280KiB time=00:00:04.53 bitrate=2313.1kbits/s speed=0.0115x elapsed=0:06:35.00    \nframe=  274 fps=0.7 q=31.0 size=    1280KiB time=00:00:04.53 bitrate=2313.1kbits/s speed=0.0115x elapsed=0:06:35.66    \nframe=  274 fps=0.7 q=31.0 size=    1280KiB time=00:00:04.53 bitrate=2313.1kbits/s speed=0.0114x elapsed=0:06:36.31    \nframe=  275 fps=0.7 q=37.0 size=    1280KiB time=00:00:04.55 bitrate=2304.6kbits/s speed=0.0115x elapsed=0:06:36.94    \nframe=  275 fps=0.7 q=37.0 size=    1280KiB time=00:00:04.55 bitrate=2304.6kbits/s speed=0.0114x elapsed=0:06:37.54    \nframe=  276 fps=0.7 q=38.0 size=    1280KiB time=00:00:04.56 bitrate=2296.2kbits/s speed=0.0115x elapsed=0:06:38.20    \nframe=  276 fps=0.7 q=38.0 size=    1280KiB time=00:00:04.56 bitrate=2296.2kbits/s speed=0.0114x elapsed=0:06:38.86    \nframe=  276 fps=0.7 q=38.0 size=    1280KiB time=00:00:04.56 bitrate=2296.2kbits/s speed=0.0114x elapsed=0:06:39.47    \nframe=  276 fps=0.7 q=38.0 size=    1280KiB time=00:00:04.56 bitrate=2296.2kbits/s speed=0.0114x elapsed=0:06:40.10    \nframe=  276 fps=0.7 q=38.0 size=    1280KiB time=00:00:04.56 bitrate=2296.2kbits/s speed=0.0114x elapsed=0:06:40.70    \nframe=  276 fps=0.7 q=38.0 size=    1280KiB time=00:00:04.56 bitrate=2296.2kbits/s speed=0.0114x elapsed=0:06:41.31    \nframe=  277 fps=0.7 q=31.2 size=    1280KiB time=00:00:04.58 bitrate=2287.9kbits/s speed=0.0114x elapsed=0:06:41.88    \nframe=  277 fps=0.7 q=31.2 size=    1280KiB time=00:00:04.58 bitrate=2287.9kbits/s speed=0.0114x elapsed=0:06:42.41    \nframe=  277 fps=0.7 q=31.2 size=    1280KiB time=00:00:04.58 bitrate=2287.9kbits/s speed=0.0114x elapsed=0:06:42.96    \nframe=  279 fps=0.7 q=38.0 size=    1280KiB time=00:00:04.61 bitrate=2271.4kbits/s speed=0.0114x elapsed=0:06:43.51    \nframe=  279 fps=0.7 q=38.0 size=    1280KiB time=00:00:04.61 bitrate=2271.4kbits/s speed=0.0114x elapsed=0:06:44.06    \nframe=  279 fps=0.7 q=38.0 size=    1280KiB time=00:00:04.61 bitrate=2271.4kbits/s speed=0.0114x elapsed=0:06:44.57    \nframe=  282 fps=0.7 q=37.0 size=    1280KiB time=00:00:04.66 bitrate=2247.0kbits/s speed=0.0115x elapsed=0:06:45.10    \nframe=  282 fps=0.7 q=37.0 size=    1280KiB time=00:00:04.66 bitrate=2247.0kbits/s speed=0.0115x elapsed=0:06:45.62    \nframe=  282 fps=0.7 q=37.0 size=    1280KiB time=00:00:04.66 bitrate=2247.0kbits/s speed=0.0115x elapsed=0:06:46.15    \nframe=  283 fps=0.7 q=37.0 size=    1280KiB time=00:00:04.68 bitrate=2239.0kbits/s speed=0.0115x elapsed=0:06:46.67    \nframe=  284 fps=0.7 q=37.1 size=    1280KiB time=00:00:04.70 bitrate=2231.1kbits/s speed=0.0115x elapsed=0:06:47.19    \nframe=  286 fps=0.7 q=32.5 size=    1536KiB time=00:00:04.73 bitrate=2658.4kbits/s speed=0.0116x elapsed=0:06:47.71    \nframe=  287 fps=0.7 q=37.0 size=    1536KiB time=00:00:04.75 bitrate=2649.1kbits/s speed=0.0116x elapsed=0:06:48.22    \nframe=  289 fps=0.7 q=36.0 size=    1536KiB time=00:00:04.78 bitrate=2630.6kbits/s speed=0.0117x elapsed=0:06:48.77    \nframe=  291 fps=0.7 q=33.6 size=    1536KiB time=00:00:04.81 bitrate=2612.4kbits/s speed=0.0118x elapsed=0:06:49.29    \nframe=  292 fps=0.7 q=35.2 size=    1536KiB time=00:00:04.83 bitrate=2603.4kbits/s speed=0.0118x elapsed=0:06:49.82    \nframe=  292 fps=0.7 q=35.2 size=    1536KiB time=00:00:04.83 bitrate=2603.4kbits/s speed=0.0118x elapsed=0:06:50.36    \nframe=  292 fps=0.7 q=35.2 size=    1536KiB time=00:00:04.83 bitrate=2603.4kbits/s speed=0.0118x elapsed=0:06:50.88    \nframe=  292 fps=0.7 q=35.2 size=    1536KiB time=00:00:04.83 bitrate=2603.4kbits/s speed=0.0117x elapsed=0:06:51.40    \nframe=  294 fps=0.7 q=33.5 size=    1536KiB time=00:00:04.86 bitrate=2585.6kbits/s speed=0.0118x elapsed=0:06:51.93    \nframe=  294 fps=0.7 q=33.5 size=    1536KiB time=00:00:04.86 bitrate=2585.6kbits/s speed=0.0118x elapsed=0:06:52.46    \nframe=  295 fps=0.7 q=31.2 size=    1536KiB time=00:00:04.88 bitrate=2576.8kbits/s speed=0.0118x elapsed=0:06:53.00    \nframe=  295 fps=0.7 q=31.2 size=    1536KiB time=00:00:04.88 bitrate=2576.8kbits/s speed=0.0118x elapsed=0:06:53.55    \nframe=  295 fps=0.7 q=31.2 size=    1536KiB time=00:00:04.88 bitrate=2576.8kbits/s speed=0.0118x elapsed=0:06:54.08    \nframe=  296 fps=0.7 q=31.5 size=    1536KiB time=00:00:04.90 bitrate=2568.0kbits/s speed=0.0118x elapsed=0:06:54.60    \nframe=  297 fps=0.7 q=31.7 size=    1536KiB time=00:00:04.91 bitrate=2559.3kbits/s speed=0.0118x elapsed=0:06:55.12    \nframe=  298 fps=0.7 q=31.3 size=    1536KiB time=00:00:04.93 bitrate=2550.7kbits/s speed=0.0119x elapsed=0:06:55.63    \nframe=  299 fps=0.7 q=30.8 size=    1536KiB time=00:00:04.95 bitrate=2542.1kbits/s speed=0.0119x elapsed=0:06:56.15    \n[mp4 @ 000001be306ccfc0] Starting second pass: moving the moov atom to the beginning of the file\n[out#0/mp4 @ 000001be306bac00] video:1584KiB audio:0KiB subtitle:0KiB other streams:0KiB global headers:2KiB muxing overhead: 0.432575%\nframe=  300 fps=0.7 q=34.1 Lsize=    1591KiB time=00:00:04.96 bitrate=2624.5kbits/s speed=0.0119x elapsed=0:06:56.23    \nx265 [info]: frame I:      2, Avg QP:41.92  kb/s: 44128.08\nx265 [info]: frame P:     71, Avg QP:32.22  kb/s: 7718.76 \nx265 [info]: frame B:    227, Avg QP:36.32  kb/s: 625.01  \nx265 [info]: Weighted P-Frames: Y:5.6% UV:2.8%\n\nencoded 300 frames in 415.85s (0.72 fps), 2593.88 kb/s, Avg QP:35.39\n",
  "seconds": 417.11105513572693,
  "probe_out": {}
}